<svg width="146" height="146" fill="none" xmlns="http://www.w3.org/2000/svg"><g filter="url(#filter0_d_4709_7)"><rect x="44" y="30" width="58" height="58" rx="10" fill="url(#paint0_linear_4709_7)"/></g><path d="M56.464 59.044a.709.709 0 00-.421.907l.445 1.224 3.387-3.387-3.411 1.256zm3.206 10.88l2.04 5.61a.702.702 0 00.665.466.692.692 0 00.245-.044l2.251-.83-5.202-5.202zm30.287-4.79l-2.335-6.419-5.603 5.603 2.777-1.023a.705.705 0 01.91.42.707.707 0 01-.42.91l-3.527 1.3a.706.706 0 01-.91-.42l-.001-.012-5.937 5.937 14.625-5.39a.706.706 0 00.42-.906zm-.165-11.594L78.46 42.207a.709.709 0 00-1.001 0l-21.25 21.25a.709.709 0 000 1.002l11.333 11.333a.711.711 0 001.002.001l21.25-21.25a.71.71 0 000-1.003zm-25.499 8.087L61.46 64.46a.711.711 0 01-1.003 0 .709.709 0 010-1.002l2.833-2.833a.709.709 0 011.003 1.002zm12.233.9c-.502.5-1.183.742-1.941.742-1.252 0-2.716-.656-3.94-1.882-.895-.895-1.524-1.966-1.77-3.014-.271-1.17-.047-2.186.631-2.866.679-.68 1.696-.904 2.866-.63 1.048.244 2.12.872 3.014 1.769 1.968 1.966 2.47 4.55 1.14 5.88zm9.016-7.984l-2.833 2.834a.712.712 0 01-1.003 0 .709.709 0 010-1.002l2.833-2.833a.709.709 0 011.003 1.001z" fill="#fff"/><defs><linearGradient id="paint0_linear_4709_7" x1="35" y1="22" x2="96" y2="93" gradientUnits="userSpaceOnUse"><stop stop-color="#BBC423"/><stop offset="1" stop-color="#E99A3D"/></linearGradient><filter id="filter0_d_4709_7" x="0" y="0" width="146" height="146" filterUnits="userSpaceOnUse" color-interpolation-filters="sRGB"><feFlood flood-opacity="0" result="BackgroundImageFix"/><feColorMatrix in="SourceAlpha" values="0 0 0 0 0 0 0 0 0 0 0 0 0 0 0 0 0 0 127 0" result="hardAlpha"/><feOffset dy="14"/><feGaussianBlur stdDeviation="22"/><feComposite in2="hardAlpha" operator="out"/><feColorMatrix values="0 0 0 0 0.862745 0 0 0 0 0.596078 0 0 0 0 0.223529 0 0 0 0.6 0"/><feBlend in2="BackgroundImageFix" result="effect1_dropShadow_4709_7"/><feBlend in="SourceGraphic" in2="effect1_dropShadow_4709_7" result="shape"/></filter></defs></svg>