<svg width="58" height="58" fill="none" xmlns="http://www.w3.org/2000/svg"><rect x=".5" y=".5" width="57" height="57" rx="9.5" stroke="#37583C"/><path d="M33.31 30.302c1.113-.718 1.604-2.245 1.808-3.196-1.034-.22-2.599-.345-3.654.335-1.112.718-1.603 2.245-1.807 3.196 1.034.22 2.599.346 3.653-.335z" fill="url(#paint0_linear_4709_8)"/><path d="M28.5 17.152c-6.257 0-11.348 5.09-11.348 11.348 0 5.911 4.544 10.78 10.323 11.3v-7.1a9.893 9.893 0 01-.74.11 8.787 8.787 0 01-.969.055c-1.239 0-2.328-.285-3.188-.84-1.079-.696-1.918-1.894-2.429-3.464a10.042 10.042 0 01-.446-2.12l-.06-.776.732-.266c.038-.013.934-.335 2.115-.466 1.641-.183 3.079.09 4.157.785.74.477 1.367 1.19 1.853 2.098.486-.907 1.113-1.62 1.853-2.098 1.078-.696 2.516-.968 4.157-.785a10.04 10.04 0 012.115.466l.732.266-.06.777c-.003.04-.079.988-.446 2.119-.51 1.57-1.35 2.768-2.429 3.464-.86.555-1.95.84-3.188.84-.314 0-.637-.018-.969-.055a9.893 9.893 0 01-.74-.11v7.1c5.779-.52 10.323-5.389 10.323-11.3 0-6.257-5.09-11.348-11.348-11.348z" fill="url(#paint1_linear_4709_8)"/><path d="M25.535 27.441c-1.055-.681-2.622-.555-3.657-.334.225 1.033.756 2.514 1.812 3.195 1.112.718 2.706.536 3.657.33-.226-1.033-.757-2.51-1.812-3.19z" fill="url(#paint2_linear_4709_8)"/><path d="M40.874 16.126A17.386 17.386 0 0028.5 11c-4.674 0-9.069 1.82-12.374 5.126A17.386 17.386 0 0011 28.5c0 4.674 1.82 9.069 5.126 12.374A17.386 17.386 0 0028.5 46c4.674 0 9.069-1.82 12.374-5.126A17.386 17.386 0 0046 28.5c0-4.674-1.82-9.069-5.126-12.374zM28.5 41.898c-7.388 0-13.398-6.01-13.398-13.398s6.01-13.398 13.398-13.398 13.398 6.01 13.398 13.398-6.01 13.398-13.398 13.398z" fill="url(#paint3_linear_4709_8)"/><defs><linearGradient id="paint0_linear_4709_8" x1="19.246" y1="11" x2="48.792" y2="19.226" gradientUnits="userSpaceOnUse"><stop stop-color="#E2F685"/><stop offset="1" stop-color="#8AF9AD"/></linearGradient><linearGradient id="paint1_linear_4709_8" x1="19.246" y1="11" x2="48.792" y2="19.226" gradientUnits="userSpaceOnUse"><stop stop-color="#E2F685"/><stop offset="1" stop-color="#8AF9AD"/></linearGradient><linearGradient id="paint2_linear_4709_8" x1="19.246" y1="11" x2="48.792" y2="19.226" gradientUnits="userSpaceOnUse"><stop stop-color="#E2F685"/><stop offset="1" stop-color="#8AF9AD"/></linearGradient><linearGradient id="paint3_linear_4709_8" x1="19.246" y1="11" x2="48.792" y2="19.226" gradientUnits="userSpaceOnUse"><stop stop-color="#E2F685"/><stop offset="1" stop-color="#8AF9AD"/></linearGradient></defs></svg>