<svg width="58" height="58" fill="none" xmlns="http://www.w3.org/2000/svg"><rect x=".5" y=".5" width="57" height="57" rx="9.5" stroke="#37583C"/><path d="M43.931 23.89l-6.736 4.443a8.654 8.654 0 01-.206 3.639l6.592 4.348c1.756-3.9 1.893-8.4.35-12.43z" fill="url(#paint0_linear_4709_6)"/><path d="M36.543 26.147l6.46-4.26a16.469 16.469 0 00-5.966-6.183l-4.282 6.354a8.799 8.799 0 013.788 4.089z" fill="url(#paint1_linear_4709_6)"/><path d="M28.5 23.147c-3.64 0-6.6 2.929-6.6 6.53 0 3.6 2.96 6.529 6.6 6.529 3.64 0 6.6-2.93 6.6-6.53s-2.96-6.53-6.6-6.53zm0 10.882c-2.426 0-4.4-1.953-4.4-4.353 0-2.4 1.974-4.353 4.4-4.353s4.4 1.953 4.4 4.353c0 2.4-1.974 4.353-4.4 4.353z" fill="url(#paint2_linear_4709_6)"/><path d="M32.208 37.57l4.302 6.384a16.592 16.592 0 006.035-5.702l-6.42-4.234a8.824 8.824 0 01-3.917 3.552z" fill="url(#paint3_linear_4709_6)"/><path d="M28.5 31.853c1.215 0 2.2-.975 2.2-2.177a2.188 2.188 0 00-2.2-2.176c-1.215 0-2.2.974-2.2 2.176 0 1.202.985 2.177 2.2 2.177z" fill="url(#paint4_linear_4709_6)"/><path d="M26.977 38.251l-4.475 6.64a16.781 16.781 0 0011.996 0l-4.475-6.64a8.928 8.928 0 01-3.046 0z" fill="url(#paint5_linear_4709_6)"/><path d="M30.665 21.237l4.406-6.539a16.522 16.522 0 00-2.941-.948c-1.045 2.086-2.563 4.036-3.63 5.609-1.064-1.57-2.582-3.517-3.63-5.609a16.539 16.539 0 00-2.941.948l4.406 6.54a8.913 8.913 0 014.33 0z" fill="url(#paint6_linear_4709_6)"/><path d="M20.875 34.018l-6.42 4.234a16.594 16.594 0 006.035 5.702l4.302-6.384a8.823 8.823 0 01-3.917-3.552z" fill="url(#paint7_linear_4709_6)"/><path d="M19.805 28.333L13.07 23.89a16.226 16.226 0 00.35 12.43l6.592-4.348a8.632 8.632 0 01-.206-3.64z" fill="url(#paint8_linear_4709_6)"/><path d="M24.245 22.058l-4.282-6.354a16.47 16.47 0 00-5.965 6.183l6.459 4.26a8.799 8.799 0 013.788-4.089z" fill="url(#paint9_linear_4709_6)"/><path d="M30.7 11.176C30.7 9.974 29.715 9 28.5 9c-1.215 0-2.2.974-2.2 2.176 0 1.202 2.2 4.353 2.2 4.353s2.2-3.15 2.2-4.353z" fill="url(#paint10_linear_4709_6)"/><defs><linearGradient id="paint0_linear_4709_6" x1="19.775" y1="9" x2="48.048" y2="16.02" gradientUnits="userSpaceOnUse"><stop stop-color="#E2F685"/><stop offset="1" stop-color="#8AF9AD"/></linearGradient><linearGradient id="paint1_linear_4709_6" x1="19.775" y1="9" x2="48.048" y2="16.02" gradientUnits="userSpaceOnUse"><stop stop-color="#E2F685"/><stop offset="1" stop-color="#8AF9AD"/></linearGradient><linearGradient id="paint2_linear_4709_6" x1="19.775" y1="9" x2="48.048" y2="16.02" gradientUnits="userSpaceOnUse"><stop stop-color="#E2F685"/><stop offset="1" stop-color="#8AF9AD"/></linearGradient><linearGradient id="paint3_linear_4709_6" x1="19.775" y1="9" x2="48.048" y2="16.02" gradientUnits="userSpaceOnUse"><stop stop-color="#E2F685"/><stop offset="1" stop-color="#8AF9AD"/></linearGradient><linearGradient id="paint4_linear_4709_6" x1="19.775" y1="9" x2="48.048" y2="16.02" gradientUnits="userSpaceOnUse"><stop stop-color="#E2F685"/><stop offset="1" stop-color="#8AF9AD"/></linearGradient><linearGradient id="paint5_linear_4709_6" x1="19.775" y1="9" x2="48.048" y2="16.02" gradientUnits="userSpaceOnUse"><stop stop-color="#E2F685"/><stop offset="1" stop-color="#8AF9AD"/></linearGradient><linearGradient id="paint6_linear_4709_6" x1="19.775" y1="9" x2="48.048" y2="16.02" gradientUnits="userSpaceOnUse"><stop stop-color="#E2F685"/><stop offset="1" stop-color="#8AF9AD"/></linearGradient><linearGradient id="paint7_linear_4709_6" x1="19.775" y1="9" x2="48.048" y2="16.02" gradientUnits="userSpaceOnUse"><stop stop-color="#E2F685"/><stop offset="1" stop-color="#8AF9AD"/></linearGradient><linearGradient id="paint8_linear_4709_6" x1="19.775" y1="9" x2="48.048" y2="16.02" gradientUnits="userSpaceOnUse"><stop stop-color="#E2F685"/><stop offset="1" stop-color="#8AF9AD"/></linearGradient><linearGradient id="paint9_linear_4709_6" x1="19.775" y1="9" x2="48.048" y2="16.02" gradientUnits="userSpaceOnUse"><stop stop-color="#E2F685"/><stop offset="1" stop-color="#8AF9AD"/></linearGradient><linearGradient id="paint10_linear_4709_6" x1="19.775" y1="9" x2="48.048" y2="16.02" gradientUnits="userSpaceOnUse"><stop stop-color="#E2F685"/><stop offset="1" stop-color="#8AF9AD"/></linearGradient></defs></svg>