<svg width="112" height="111" fill="none" xmlns="http://www.w3.org/2000/svg"><g filter="url(#filter0_d_21_723)"><path d="M65.188 30H46.811A2.817 2.817 0 0044 32.815v14.119a2.817 2.817 0 002.813 2.815h4.39c.935 0 1.823.437 2.398 1.173 1.21 1.549 3.572 1.56 4.77.001a3.008 3.008 0 012.385-1.175h4.431A2.817 2.817 0 0068 46.934v-14.12A2.817 2.817 0 0065.187 30zm.937 16.934c0 .517-.42.938-.938.938H59.42a2.17 2.17 0 00-1.72.847c-.864 1.124-2.568 1.117-3.44 0a2.202 2.202 0 00-1.73-.847h-5.718a.939.939 0 01-.937-.938v-14.12c0-.517.42-.938.938-.938h18.374a.94.94 0 01.938.939v14.119zm-11.108-11.68a1.172 1.172 0 112.344-.001 1.172 1.172 0 01-2.344 0zm1.81 8.63a.709.709 0 01.948.327l.2.412a.71.71 0 01-.326.948 2.27 2.27 0 01-2.344-.212 2.27 2.27 0 01-.883-2.263l.646-2.572c.065-.26.152-.58-.063-.739a.384.384 0 00-.412-.037.854.854 0 01-1.143-.394l-.073-.15a.855.855 0 01.394-1.142 2.266 2.266 0 012.344.212 2.27 2.27 0 01.883 2.263l-.646 2.572c-.065.26-.152.58.064.738a.38.38 0 00.41.038z" fill="url(#paint0_linear_21_723)"/></g><defs><linearGradient id="paint0_linear_21_723" x1="40.276" y1="26.69" x2="65.517" y2="56.069" gradientUnits="userSpaceOnUse"><stop stop-color="#CAEE39"/><stop offset="1" stop-color="#E99A3D"/></linearGradient><filter id="filter0_d_21_723" x="0" y="0" width="112" height="110.088" filterUnits="userSpaceOnUse" color-interpolation-filters="sRGB"><feFlood flood-opacity="0" result="BackgroundImageFix"/><feColorMatrix in="SourceAlpha" values="0 0 0 0 0 0 0 0 0 0 0 0 0 0 0 0 0 0 127 0" result="hardAlpha"/><feOffset dy="14"/><feGaussianBlur stdDeviation="22"/><feComposite in2="hardAlpha" operator="out"/><feColorMatrix values="0 0 0 0 0.862745 0 0 0 0 0.596078 0 0 0 0 0.223529 0 0 0 0.6 0"/><feBlend in2="BackgroundImageFix" result="effect1_dropShadow_21_723"/><feBlend in="SourceGraphic" in2="effect1_dropShadow_21_723" result="shape"/></filter></defs></svg>