<svg width="521" height="511" fill="none" xmlns="http://www.w3.org/2000/svg"><mask id="mask0_14_486" style="mask-type:alpha" maskUnits="userSpaceOnUse" x="92" y="175" width="278" height="278"><circle cx="231" cy="314" r="139" fill="#05030E"/></mask><g mask="url(#mask0_14_486)"><g filter="url(#filter0_d_14_486)"><rect x="46.804" y="137.479" width="297.613" height="340.252" rx="10" fill="url(#paint0_linear_14_486)"/></g><path d="M115.025 111.896l126.208-24.73v204.662L215.65 283.3 115.025 111.896z" fill="#75CF92"/><path d="M229.294 155.331c0-9.389 7.612-17 17-17H451.92c9.389 0 17 7.611 17 17v290.968c0 9.022-7.048 16.473-16.057 16.973l-278.167 15.454c-12.774.71-21.725-12.413-16.402-24.047l69.459-151.807a16.994 16.994 0 001.541-7.073V155.331z" fill="url(#paint1_linear_14_486)"/></g><circle cx="231" cy="314" r="96.362" fill="#05030E"/><circle cx="231" cy="314" r="67" fill="#14131A"/><path d="M128.068 155.55h-5.208l-1.078 2.45h-1.442l4.438-9.8h1.386l4.452 9.8h-1.47l-1.078-2.45zm-.49-1.12l-2.114-4.802-2.114 4.802h4.228zm4.303-3.85h1.344V158h-1.344v-7.42zm.672-1.428a.922.922 0 01-.658-.252.837.837 0 01-.252-.616c0-.243.084-.448.252-.616a.897.897 0 01.658-.266c.262 0 .476.084.644.252a.77.77 0 01.266.602.874.874 0 01-.266.644.871.871 0 01-.644.252zm4.527 2.674a2.29 2.29 0 011.036-.98c.457-.224 1.012-.336 1.666-.336v1.302a2.712 2.712 0 00-.308-.014c-.728 0-1.302.219-1.722.658-.411.429-.616 1.045-.616 1.848V158h-1.344v-7.42h1.288v1.246zm11.29-4.214V158h-1.288v-1.176a2.915 2.915 0 01-1.134.938 3.513 3.513 0 01-1.512.322c-.719 0-1.363-.159-1.932-.476a3.463 3.463 0 01-1.344-1.33c-.318-.579-.476-1.241-.476-1.988 0-.747.158-1.405.476-1.974a3.463 3.463 0 011.344-1.33c.569-.317 1.213-.476 1.932-.476a3.49 3.49 0 011.47.308c.448.196.821.49 1.12.882v-4.088h1.344zm-3.822 9.296c.466 0 .891-.107 1.274-.322.382-.224.681-.532.896-.924.214-.401.322-.859.322-1.372 0-.513-.108-.966-.322-1.358a2.26 2.26 0 00-.896-.924 2.558 2.558 0 00-1.274-.322c-.476 0-.906.107-1.288.322a2.372 2.372 0 00-.896.924c-.215.392-.322.845-.322 1.358 0 .513.107.971.322 1.372.224.392.522.7.896.924.382.215.812.322 1.288.322zm7.653-5.082a2.29 2.29 0 011.036-.98c.457-.224 1.012-.336 1.666-.336v1.302a2.712 2.712 0 00-.308-.014c-.728 0-1.302.219-1.722.658-.411.429-.616 1.045-.616 1.848V158h-1.344v-7.42h1.288v1.246zm7.468 6.258c-.738 0-1.4-.163-1.988-.49a3.624 3.624 0 01-1.386-1.344c-.327-.579-.49-1.232-.49-1.96s.163-1.377.49-1.946a3.486 3.486 0 011.386-1.344c.588-.327 1.25-.49 1.988-.49.737 0 1.395.163 1.974.49a3.394 3.394 0 011.372 1.344c.336.569.504 1.218.504 1.946s-.168 1.381-.504 1.96a3.525 3.525 0 01-1.372 1.344c-.579.327-1.237.49-1.974.49zm0-1.176c.476 0 .9-.107 1.274-.322.382-.224.681-.532.896-.924.214-.401.322-.859.322-1.372 0-.513-.108-.966-.322-1.358a2.26 2.26 0 00-.896-.924 2.508 2.508 0 00-1.274-.322c-.476 0-.906.107-1.288.322a2.372 2.372 0 00-.896.924c-.215.392-.322.845-.322 1.358 0 .513.107.971.322 1.372.224.392.522.7.896.924.382.215.812.322 1.288.322zm9.643-6.398c.718 0 1.362.159 1.932.476a3.382 3.382 0 011.33 1.33c.326.569.49 1.227.49 1.974 0 .747-.164 1.409-.49 1.988a3.382 3.382 0 01-1.33 1.33c-.57.317-1.214.476-1.932.476a3.49 3.49 0 01-1.47-.308 3.052 3.052 0 01-1.12-.896v3.836h-1.344V150.58h1.288v1.176a2.784 2.784 0 011.134-.924 3.507 3.507 0 011.512-.322zm-.112 6.398c.476 0 .9-.107 1.274-.322.382-.224.681-.532.896-.924.224-.401.336-.859.336-1.372 0-.513-.112-.966-.336-1.358a2.26 2.26 0 00-.896-.924 2.508 2.508 0 00-1.274-.322c-.467 0-.892.112-1.274.336a2.396 2.396 0 00-.896.91c-.215.392-.322.845-.322 1.358 0 .513.107.971.322 1.372.214.392.513.7.896.924.382.215.807.322 1.274.322zM10.636 388l-.014-7.14-3.542 5.95h-.644l-3.542-5.908V388H1.55v-9.8h1.148l4.088 6.888 4.032-6.888h1.148l.014 9.8h-1.344zm6.817-7.49c1.027 0 1.81.252 2.352.756.55.504.826 1.255.826 2.254V388h-1.274v-.98a2.166 2.166 0 01-.966.798c-.41.177-.9.266-1.47.266-.83 0-1.498-.201-2.002-.602-.495-.401-.742-.929-.742-1.582s.238-1.176.714-1.568c.476-.401 1.232-.602 2.268-.602h2.128v-.266c0-.579-.168-1.022-.504-1.33-.336-.308-.83-.462-1.484-.462-.439 0-.868.075-1.288.224a3.21 3.21 0 00-1.064.574l-.56-1.008c.383-.308.84-.541 1.372-.7a5.593 5.593 0 011.694-.252zm-.308 6.538c.513 0 .957-.112 1.33-.336a2 2 0 00.812-.98v-1.036h-2.072c-1.139 0-1.708.383-1.708 1.148 0 .373.145.667.434.882.29.215.69.322 1.204.322zm9.84-6.538c.719 0 1.363.159 1.932.476a3.37 3.37 0 011.33 1.33c.327.569.49 1.227.49 1.974 0 .747-.163 1.409-.49 1.988a3.375 3.375 0 01-1.33 1.33c-.57.317-1.213.476-1.932.476a3.49 3.49 0 01-1.47-.308 3.055 3.055 0 01-1.12-.896v3.836h-1.344V380.58h1.288v1.176a2.793 2.793 0 011.134-.924 3.51 3.51 0 011.512-.322zm-.112 6.398c.476 0 .9-.107 1.274-.322.383-.224.681-.532.896-.924.224-.401.336-.859.336-1.372 0-.513-.112-.966-.336-1.358a2.254 2.254 0 00-.896-.924 2.506 2.506 0 00-1.274-.322c-.467 0-.891.112-1.274.336a2.4 2.4 0 00-.896.91c-.215.392-.322.845-.322 1.358 0 .513.107.971.322 1.372.215.392.513.7.896.924.383.215.807.322 1.274.322zm8.7-2.044h-1.54V388H32.69v-7.42h1.344v3.136h1.568l2.408-3.136h1.442l-2.814 3.57 3.01 3.85h-1.582l-2.492-3.136zm11.944-.532c0 .103-.01.238-.028.406h-6.02c.084.653.368 1.181.854 1.582.495.392 1.106.588 1.834.588.887 0 1.6-.299 2.142-.896l.742.868a3.237 3.237 0 01-1.26.896 4.315 4.315 0 01-1.666.308c-.784 0-1.48-.159-2.086-.476a3.539 3.539 0 01-1.414-1.358c-.327-.579-.49-1.232-.49-1.96 0-.719.158-1.367.476-1.946A3.47 3.47 0 0141.93 381a3.784 3.784 0 011.918-.49c.71 0 1.34.163 1.89.49.56.317.994.765 1.302 1.344.317.579.476 1.241.476 1.988zm-3.668-2.688c-.644 0-1.185.196-1.624.588-.43.392-.681.905-.756 1.54h4.76c-.075-.625-.331-1.134-.77-1.526-.43-.401-.966-.602-1.61-.602zm10.968.112h-2.716V388h-1.344v-6.244h-2.716v-1.176h6.776v1.176zm1.375-1.176h1.344v5.404l4.55-5.404h1.218V388H61.96v-5.404L57.424 388h-1.232v-7.42zm9.72 0h1.344v3.15h4.228v-3.15h1.344V388h-1.344v-3.108h-4.228V388h-1.344v-7.42zm14.99 1.176h-4.116V388h-1.344v-7.42h5.46v1.176zm299.633-172.338h-3.36V218h-1.372v-8.582h-3.346V208.2h8.078v1.218zm3.89 8.666c-.737 0-1.4-.163-1.988-.49a3.624 3.624 0 01-1.386-1.344c-.326-.579-.49-1.232-.49-1.96s.164-1.377.49-1.946a3.486 3.486 0 011.386-1.344c.588-.327 1.251-.49 1.988-.49.738 0 1.396.163 1.974.49a3.388 3.388 0 011.372 1.344c.336.569.504 1.218.504 1.946s-.168 1.381-.504 1.96a3.518 3.518 0 01-1.372 1.344c-.578.327-1.236.49-1.974.49zm0-1.176c.476 0 .901-.107 1.274-.322.383-.224.682-.532.896-.924a2.86 2.86 0 00.322-1.372c0-.513-.107-.966-.322-1.358a2.249 2.249 0 00-.896-.924 2.505 2.505 0 00-1.274-.322c-.476 0-.905.107-1.288.322a2.379 2.379 0 00-.896.924c-.214.392-.322.845-.322 1.358 0 .513.108.971.322 1.372.224.392.523.7.896.924.383.215.812.322 1.288.322zm8.675-2.044h-1.54V218h-1.344v-7.42h1.344v3.136h1.568l2.408-3.136h1.442l-2.814 3.57 3.01 3.85h-1.582l-2.492-3.136zm11.943-.532c0 .103-.009.238-.028.406h-6.02c.084.653.369 1.181.854 1.582.495.392 1.106.588 1.834.588.887 0 1.601-.299 2.142-.896l.742.868a3.237 3.237 0 01-1.26.896 4.316 4.316 0 01-1.666.308c-.784 0-1.479-.159-2.086-.476a3.537 3.537 0 01-1.414-1.358c-.327-.579-.49-1.232-.49-1.96 0-.719.159-1.367.476-1.946a3.471 3.471 0 011.33-1.344c.569-.327 1.209-.49 1.918-.49.709 0 1.339.163 1.89.49.56.317.994.765 1.302 1.344.317.579.476 1.241.476 1.988zm-3.668-2.688c-.644 0-1.185.196-1.624.588-.429.392-.681.905-.756 1.54h4.76c-.075-.625-.331-1.134-.77-1.526-.429-.401-.966-.602-1.61-.602zm5.753-1.064h1.344v3.15h4.228v-3.15h1.344V218H412.7v-3.108h-4.228V218h-1.344v-7.42zm12.763 7.504c-.756 0-1.432-.163-2.03-.49a3.624 3.624 0 01-1.386-1.344c-.336-.579-.504-1.232-.504-1.96s.168-1.377.504-1.946a3.486 3.486 0 011.386-1.344c.598-.327 1.274-.49 2.03-.49.672 0 1.27.135 1.792.406.532.271.943.663 1.232 1.176l-1.022.658a2.27 2.27 0 00-.868-.798 2.479 2.479 0 00-1.148-.266c-.485 0-.924.107-1.316.322a2.352 2.352 0 00-.91.924c-.214.392-.322.845-.322 1.358 0 .523.108.985.322 1.386.224.392.528.695.91.91.392.215.831.322 1.316.322.42 0 .803-.089 1.148-.266a2.27 2.27 0 00.868-.798l1.022.644c-.289.513-.7.91-1.232 1.19-.522.271-1.12.406-1.792.406zm11.361-3.752c0 .103-.009.238-.028.406h-6.02c.084.653.369 1.181.854 1.582.495.392 1.106.588 1.834.588.887 0 1.601-.299 2.142-.896l.742.868a3.237 3.237 0 01-1.26.896 4.316 4.316 0 01-1.666.308c-.784 0-1.479-.159-2.086-.476a3.537 3.537 0 01-1.414-1.358c-.327-.579-.49-1.232-.49-1.96 0-.719.159-1.367.476-1.946a3.471 3.471 0 011.33-1.344c.569-.327 1.209-.49 1.918-.49.709 0 1.339.163 1.89.49.56.317.994.765 1.302 1.344.317.579.476 1.241.476 1.988zm-3.668-2.688c-.644 0-1.185.196-1.624.588-.429.392-.681.905-.756 1.54h4.76c-.075-.625-.331-1.134-.77-1.526-.429-.401-.966-.602-1.61-.602zm5.753-1.064h1.344v5.404l4.55-5.404h1.218V218h-1.344v-5.404L434.569 218h-1.232v-7.42zm3.472-.966c-.691 0-1.227-.163-1.61-.49-.383-.336-.579-.817-.588-1.442h.91c.009.345.126.625.35.84.233.205.541.308.924.308s.691-.103.924-.308c.233-.215.355-.495.364-.84h.938c-.009.625-.21 1.106-.602 1.442-.392.327-.929.49-1.61.49zm12.619.966V218h-1.344v-6.244h-3.192l-.084 1.652c-.047.999-.135 1.834-.266 2.506-.131.663-.345 1.195-.644 1.596-.299.401-.714.602-1.246.602-.243 0-.518-.042-.826-.126l.084-1.134c.121.028.233.042.336.042a.909.909 0 00.84-.49 3.09 3.09 0 00.364-1.162c.056-.448.107-1.087.154-1.918l.126-2.744h5.698z" fill="#fff"/><g filter="url(#filter1_d_14_486)"><path d="M238.873 314.374L205 281.254v66.742l33.873-33.622z" fill="#B4F299"/><path d="M252.673 326.418L206.756 280l68.749 35.629-22.832 10.789z" fill="#8AC172"/><path d="M239.876 315.88L206.505 349l44.913-21.829-11.542-11.291z" fill="#B4F299"/></g><g filter="url(#filter2_f_14_486)"><circle cx="265.5" cy="255.5" r="145.5" fill="#A2DC89" fill-opacity=".4"/></g><defs><filter id="filter0_d_14_486" x="2.804" y="107.479" width="385.613" height="428.251" filterUnits="userSpaceOnUse" color-interpolation-filters="sRGB"><feFlood flood-opacity="0" result="BackgroundImageFix"/><feColorMatrix in="SourceAlpha" values="0 0 0 0 0 0 0 0 0 0 0 0 0 0 0 0 0 0 127 0" result="hardAlpha"/><feOffset dy="14"/><feGaussianBlur stdDeviation="22"/><feComposite in2="hardAlpha" operator="out"/><feColorMatrix values="0 0 0 0 0.862745 0 0 0 0 0.596078 0 0 0 0 0.223529 0 0 0 0.6 0"/><feBlend in2="BackgroundImageFix" result="effect1_dropShadow_14_486"/><feBlend in="SourceGraphic" in2="effect1_dropShadow_14_486" result="shape"/></filter><filter id="filter1_d_14_486" x="161" y="247" width="158.505" height="157" filterUnits="userSpaceOnUse" color-interpolation-filters="sRGB"><feFlood flood-opacity="0" result="BackgroundImageFix"/><feColorMatrix in="SourceAlpha" values="0 0 0 0 0 0 0 0 0 0 0 0 0 0 0 0 0 0 127 0" result="hardAlpha"/><feOffset dy="11"/><feGaussianBlur stdDeviation="22"/><feComposite in2="hardAlpha" operator="out"/><feColorMatrix values="0 0 0 0 0.637184 0 0 0 0 0.8625 0 0 0 0 0.539062 0 0 0 0.7 0"/><feBlend in2="BackgroundImageFix" result="effect1_dropShadow_14_486"/><feBlend in="SourceGraphic" in2="effect1_dropShadow_14_486" result="shape"/></filter><filter id="filter2_f_14_486" x="10" y="0" width="511" height="511" filterUnits="userSpaceOnUse" color-interpolation-filters="sRGB"><feFlood flood-opacity="0" result="BackgroundImageFix"/><feBlend in="SourceGraphic" in2="BackgroundImageFix" result="shape"/><feGaussianBlur stdDeviation="55" result="effect1_foregroundBlur_14_486"/></filter><linearGradient id="paint0_linear_14_486" x1=".622" y1="90.547" x2="362.546" y2="459.014" gradientUnits="userSpaceOnUse"><stop stop-color="#BBC423"/><stop offset="1" stop-color="#E99A3D"/></linearGradient><linearGradient id="paint1_linear_14_486" x1="153" y1="416" x2="159.965" y2="250.257" gradientUnits="userSpaceOnUse"><stop stop-color="#E2F685"/><stop offset="1" stop-color="#8AF9AD"/></linearGradient></defs></svg>