<svg width="1122" height="466" fill="none" xmlns="http://www.w3.org/2000/svg"><g filter="url(#filter0_f_4709_10)"><ellipse cx="159.5" cy="346" rx="79.5" ry="40" fill="#A2DC89" fill-opacity=".4"/></g><g filter="url(#filter1_f_4709_10)"><ellipse cx="362.5" cy="346" rx="79.5" ry="40" fill="#A2DC89" fill-opacity=".4"/></g><g filter="url(#filter2_f_4709_10)"><ellipse cx="560.5" cy="346" rx="79.5" ry="40" fill="#A2DC89" fill-opacity=".4"/></g><g filter="url(#filter3_f_4709_10)"><ellipse cx="758.5" cy="346" rx="79.5" ry="40" fill="#A2DC89" fill-opacity=".4"/></g><g filter="url(#filter4_f_4709_10)"><ellipse cx="962.5" cy="346" rx="79.5" ry="40" fill="#A2DC89" fill-opacity=".4"/></g><mask id="mask0_4709_10" style="mask-type:alpha" maskUnits="userSpaceOnUse" x="105" y="105" width="53" height="237"><path d="M105 116.45l26.044-11.219 26.044 11.219v214.764l-26.044 10.017L105 331.214V116.45z" fill="#05030E"/></mask><g mask="url(#mask0_4709_10)"><path d="M105 269.689l26.044-11.219 26.044 11.219v214.764l-26.044 10.017L105 484.453V269.689z" fill="#D5AB32"/><g opacity=".25"><path d="M105 248.854l26.044-11.219 26.044 11.219v214.764l-26.044 10.017L105 463.618V248.854z" fill="#DC9839" fill-opacity=".6"/><mask id="mask1_4709_10" style="mask-type:alpha" maskUnits="userSpaceOnUse" x="105" y="237" width="53" height="237"><path d="M105 248.854l26.044-11.219 26.044 11.219v214.764l-26.044 10.017L105 463.618V248.854z" fill="#7EE8A0"/></mask><g mask="url(#mask1_4709_10)"><path d="M86.569 241.641l44.876 17.23v215.164l-37.664-14.424-7.212-217.97z" fill="#DC9839" fill-opacity=".6"/></g></g><g opacity=".5"><path d="M105 257.668l26.044-11.219 26.044 11.219v214.764l-26.044 10.017L105 472.432V257.668z" fill="#DC9839" fill-opacity=".6"/><mask id="mask2_4709_10" style="mask-type:alpha" maskUnits="userSpaceOnUse" x="105" y="246" width="53" height="237"><path d="M105 257.668l26.044-11.219 26.044 11.219v214.764l-26.044 10.017L105 472.432V257.668z" fill="#7EE8A0"/></mask><g mask="url(#mask2_4709_10)"><path d="M86.569 250.456l44.876 17.229V482.85l-37.664-14.424-7.212-217.97z" fill="#DC9839" fill-opacity=".6"/></g></g></g><mask id="mask3_4709_10" style="mask-type:alpha" maskUnits="userSpaceOnUse" x="105" y="105" width="53" height="237"><path d="M105 116.45l26.044-11.219 26.044 11.219v214.764l-26.044 10.017L105 331.214V116.45z" fill="#7EE8A0"/></mask><g mask="url(#mask3_4709_10)"><path d="M86.569 264.808l44.876 17.229v215.165l-37.664-14.424-7.212-217.97z" fill="#BF8C44" fill-opacity=".6"/></g><mask id="mask4_4709_10" style="mask-type:alpha" maskUnits="userSpaceOnUse" x="149" y="95" width="60" height="270"><path d="M149 107.799L178.711 95l29.712 12.799v245.004l-29.712 11.428L149 352.803V107.799z" fill="#05030E"/></mask><g mask="url(#mask4_4709_10)"><path d="M149 259.799L178.711 247l29.712 12.799v245.004l-29.712 11.428L149 504.803V259.799z" fill="#7EE8A0"/><g opacity=".25"><path d="M149 236.03l29.711-12.799 29.712 12.799v245.004l-29.712 11.428L149 481.034V236.03z" fill="#7EE8A0"/><mask id="mask5_4709_10" style="mask-type:alpha" maskUnits="userSpaceOnUse" x="149" y="223" width="60" height="270"><path d="M149 236.03l29.711-12.799 29.712 12.799v245.004l-29.712 11.428L149 481.034V236.03z" fill="#7EE8A0"/></mask><g mask="url(#mask5_4709_10)"><path d="M127.973 227.802l51.195 19.655v245.462l-42.967-16.456-8.228-248.661z" fill="#75CF92"/></g></g><g opacity=".5"><path d="M149 246.086l29.711-12.799 29.712 12.799v245.005l-29.712 11.427L149 491.091V246.086z" fill="#7EE8A0"/><mask id="mask6_4709_10" style="mask-type:alpha" maskUnits="userSpaceOnUse" x="149" y="233" width="60" height="270"><path d="M149 246.086l29.711-12.799 29.712 12.799v245.005l-29.712 11.427L149 491.091V246.086z" fill="#7EE8A0"/></mask><g mask="url(#mask6_4709_10)"><path d="M127.973 237.858l51.195 19.655v245.462l-42.967-16.455-8.228-248.662z" fill="#75CF92"/></g></g></g><mask id="mask7_4709_10" style="mask-type:alpha" maskUnits="userSpaceOnUse" x="149" y="95" width="60" height="270"><path d="M149 107.799L178.711 95l29.712 12.799v245.004l-29.712 11.428L149 352.803V107.799z" fill="#7EE8A0"/></mask><g mask="url(#mask7_4709_10)"><path d="M127.973 254.231l51.195 19.655v245.462l-42.967-16.456-8.228-248.661z" fill="#75CF92"/></g><path d="M167.84 186.912c2.352 0 4.192.72 5.52 2.16 1.328 1.424 1.992 3.48 1.992 6.168 0 1.904-.36 3.536-1.08 4.896-.704 1.36-1.704 2.392-3 3.096-1.296.704-2.792 1.056-4.488 1.056a11.18 11.18 0 01-2.568-.288c-.816-.208-1.512-.496-2.088-.864l1.44-2.856c.816.56 1.864.84 3.144.84 1.424 0 2.552-.416 3.384-1.248.832-.848 1.28-2.064 1.344-3.648-1.008 1.008-2.4 1.512-4.176 1.512-1.072 0-2.048-.216-2.928-.648a5.146 5.146 0 01-2.088-1.824c-.512-.8-.768-1.72-.768-2.76 0-1.12.28-2.104.84-2.952.56-.848 1.32-1.496 2.28-1.944.976-.464 2.056-.696 3.24-.696zm.288 7.92c.848 0 1.536-.232 2.064-.696.544-.48.816-1.088.816-1.824s-.264-1.336-.792-1.8c-.512-.464-1.224-.696-2.136-.696-.832 0-1.512.224-2.04.672-.512.448-.768 1.056-.768 1.824s.256 1.384.768 1.848c.528.448 1.224.672 2.088.672zm12.977 1.44c-1.232 0-2.24-.416-3.024-1.248-.768-.848-1.152-1.976-1.152-3.384s.384-2.528 1.152-3.36c.784-.848 1.792-1.272 3.024-1.272s2.232.424 3 1.272c.768.832 1.152 1.952 1.152 3.36s-.384 2.536-1.152 3.384c-.768.832-1.768 1.248-3 1.248zm10.008-9.072h2.856L182.497 204h-2.856l11.472-16.8zm-10.008 7.104c.544 0 .968-.224 1.272-.672.32-.448.48-1.112.48-1.992 0-.88-.16-1.544-.48-1.992-.304-.448-.728-.672-1.272-.672-.528 0-.952.232-1.272.696-.32.448-.48 1.104-.48 1.968 0 .864.16 1.528.48 1.992.32.448.744.672 1.272.672zm11.4 9.888c-.8 0-1.52-.184-2.16-.552-.624-.384-1.112-.928-1.464-1.632-.352-.704-.528-1.52-.528-2.448 0-.928.176-1.744.528-2.448.352-.704.84-1.24 1.464-1.608.64-.384 1.36-.576 2.16-.576 1.232 0 2.232.424 3 1.272.784.832 1.176 1.952 1.176 3.36s-.392 2.536-1.176 3.384c-.768.832-1.768 1.248-3 1.248zm0-1.968c.544 0 .968-.224 1.272-.672.32-.464.48-1.128.48-1.992 0-.864-.16-1.52-.48-1.968-.304-.464-.728-.696-1.272-.696-.528 0-.952.224-1.272.672-.32.448-.48 1.112-.48 1.992 0 .88.16 1.544.48 1.992.32.448.744.672 1.272.672z" fill="#A2DC89"/><path d="M119.392 220.537c.759 0 1.451.153 2.074.459a3.604 3.604 0 011.479 1.309c.363.555.544 1.201.544 1.938 0 .793-.198 1.49-.595 2.091a3.934 3.934 0 01-1.632 1.394c-.68.317-1.439.476-2.278.476-1.666 0-2.969-.51-3.91-1.53-.941-1.02-1.411-2.476-1.411-4.369 0-1.349.255-2.505.765-3.468.51-.963 1.218-1.694 2.125-2.193.918-.499 1.978-.748 3.179-.748.635 0 1.241.074 1.819.221.589.136 1.088.334 1.496.595l-1.02 2.023c-.589-.397-1.332-.595-2.227-.595-1.009 0-1.808.295-2.397.884-.589.589-.907 1.445-.952 2.567.703-.703 1.683-1.054 2.941-1.054zm-.561 5.61c.589 0 1.065-.159 1.428-.476.374-.317.561-.748.561-1.292s-.187-.975-.561-1.292c-.363-.329-.85-.493-1.462-.493-.601 0-1.094.17-1.479.51a1.6 1.6 0 00-.578 1.275c0 .521.187.946.561 1.275.374.329.884.493 1.53.493zm8.078-3.621c-.872 0-1.586-.295-2.142-.884-.544-.601-.816-1.4-.816-2.397 0-.997.272-1.791.816-2.38.556-.601 1.27-.901 2.142-.901.873 0 1.581.3 2.125.901.544.589.816 1.383.816 2.38 0 .997-.272 1.796-.816 2.397-.544.589-1.252.884-2.125.884zm7.089-6.426h2.023l-8.126 11.9h-2.023l8.126-11.9zm-7.089 5.032c.386 0 .686-.159.901-.476.227-.317.34-.788.34-1.411s-.113-1.094-.34-1.411a1.029 1.029 0 00-.901-.476c-.374 0-.674.164-.901.493-.226.317-.34.782-.34 1.394 0 .612.114 1.082.34 1.411.227.317.527.476.901.476zm8.075 7.004c-.566 0-1.076-.13-1.53-.391a2.784 2.784 0 01-1.037-1.156c-.249-.499-.374-1.077-.374-1.734s.125-1.235.374-1.734c.25-.499.595-.878 1.037-1.139a2.92 2.92 0 011.53-.408c.873 0 1.581.3 2.125.901.556.589.833 1.383.833 2.38 0 .997-.277 1.796-.833 2.397-.544.589-1.252.884-2.125.884zm0-1.394c.386 0 .686-.159.901-.476.227-.329.34-.799.34-1.411s-.113-1.077-.34-1.394a1.018 1.018 0 00-.901-.493c-.374 0-.674.159-.901.476-.226.317-.34.788-.34 1.411s.114 1.094.34 1.411c.227.317.527.476.901.476z" fill="#E99A3D"/><mask id="mask8_4709_10" style="mask-type:alpha" maskUnits="userSpaceOnUse" x="307" y="105" width="53" height="237"><path d="M307 116.45l26.044-11.219 26.044 11.219v214.764l-26.044 10.017L307 331.214V116.45z" fill="#05030E"/></mask><g mask="url(#mask8_4709_10)"><path d="M307 234.689l26.044-11.219 26.044 11.219v214.764l-26.044 10.017L307 449.453V234.689z" fill="#D5AB32"/><g opacity=".25"><path d="M307 213.854l26.044-11.219 26.044 11.219v214.764l-26.044 10.017L307 428.618V213.854z" fill="#DC9839" fill-opacity=".6"/><mask id="mask9_4709_10" style="mask-type:alpha" maskUnits="userSpaceOnUse" x="307" y="202" width="53" height="237"><path d="M307 213.854l26.044-11.219 26.044 11.219v214.764l-26.044 10.017L307 428.618V213.854z" fill="#7EE8A0"/></mask><g mask="url(#mask9_4709_10)"><path d="M288.569 206.641l44.876 17.23v215.164l-37.664-14.424-7.212-217.97z" fill="#DC9839" fill-opacity=".6"/></g></g><g opacity=".5"><path d="M307 222.668l26.044-11.219 26.044 11.219v214.764l-26.044 10.017L307 437.432V222.668z" fill="#DC9839" fill-opacity=".6"/><mask id="mask10_4709_10" style="mask-type:alpha" maskUnits="userSpaceOnUse" x="307" y="211" width="53" height="237"><path d="M307 222.668l26.044-11.219 26.044 11.219v214.764l-26.044 10.017L307 437.432V222.668z" fill="#7EE8A0"/></mask><g mask="url(#mask10_4709_10)"><path d="M288.569 215.456l44.876 17.229V447.85l-37.664-14.424-7.212-217.97z" fill="#DC9839" fill-opacity=".6"/></g></g></g><mask id="mask11_4709_10" style="mask-type:alpha" maskUnits="userSpaceOnUse" x="307" y="105" width="53" height="237"><path d="M307 116.45l26.044-11.219 26.044 11.219v214.764l-26.044 10.017L307 331.214V116.45z" fill="#7EE8A0"/></mask><g mask="url(#mask11_4709_10)"><path d="M288.569 229.808l44.876 17.229v215.165l-37.664-14.424-7.212-217.97z" fill="#BF8C44" fill-opacity=".6"/></g><mask id="mask12_4709_10" style="mask-type:alpha" maskUnits="userSpaceOnUse" x="351" y="95" width="60" height="270"><path d="M351 107.799L380.711 95l29.712 12.799v245.004l-29.712 11.428L351 352.803V107.799z" fill="#05030E"/></mask><g mask="url(#mask12_4709_10)"><path d="M351 221.799L380.711 209l29.712 12.799v245.004l-29.712 11.428L351 466.803V221.799z" fill="#7EE8A0"/><g opacity=".25"><path d="M351 198.03l29.711-12.799 29.712 12.799v245.004l-29.712 11.428L351 443.034V198.03z" fill="#7EE8A0"/><mask id="mask13_4709_10" style="mask-type:alpha" maskUnits="userSpaceOnUse" x="351" y="185" width="60" height="270"><path d="M351 198.03l29.711-12.799 29.712 12.799v245.004l-29.712 11.428L351 443.034V198.03z" fill="#7EE8A0"/></mask><g mask="url(#mask13_4709_10)"><path d="M329.973 189.802l51.195 19.655v245.462l-42.967-16.456-8.228-248.661z" fill="#75CF92"/></g></g><g opacity=".5"><path d="M351 208.086l29.711-12.799 29.712 12.799v245.005l-29.712 11.427L351 453.091V208.086z" fill="#7EE8A0"/><mask id="mask14_4709_10" style="mask-type:alpha" maskUnits="userSpaceOnUse" x="351" y="195" width="60" height="270"><path d="M351 208.086l29.711-12.799 29.712 12.799v245.005l-29.712 11.427L351 453.091V208.086z" fill="#7EE8A0"/></mask><g mask="url(#mask14_4709_10)"><path d="M329.973 199.858l51.195 19.655v245.462l-42.967-16.455-8.228-248.662z" fill="#75CF92"/></g></g></g><mask id="mask15_4709_10" style="mask-type:alpha" maskUnits="userSpaceOnUse" x="351" y="95" width="60" height="270"><path d="M351 107.799L380.711 95l29.712 12.799v245.004l-29.712 11.428L351 352.803V107.799z" fill="#7EE8A0"/></mask><g mask="url(#mask15_4709_10)"><path d="M329.973 216.231l51.195 19.655v245.462l-42.967-16.456-8.228-248.661z" fill="#75CF92"/></g><path d="M366.416 149.2V166h-3.888v-13.68h-3.36v-3.12h7.248zm15.47 13.632V166H369.19v-2.52l6.48-6.12c.688-.656 1.152-1.216 1.392-1.68.24-.48.36-.952.36-1.416 0-.672-.232-1.184-.696-1.536-.448-.368-1.112-.552-1.992-.552-.736 0-1.4.144-1.992.432a3.718 3.718 0 00-1.488 1.248l-2.832-1.824c.656-.976 1.56-1.736 2.712-2.28 1.152-.56 2.472-.84 3.96-.84 1.248 0 2.336.208 3.264.624.944.4 1.672.976 2.184 1.728.528.736.792 1.608.792 2.616 0 .912-.192 1.768-.576 2.568-.384.8-1.128 1.712-2.232 2.736l-3.864 3.648h7.224zm5.727-4.56c-1.232 0-2.24-.416-3.024-1.248-.768-.848-1.152-1.976-1.152-3.384s.384-2.528 1.152-3.36c.784-.848 1.792-1.272 3.024-1.272s2.232.424 3 1.272c.768.832 1.152 1.952 1.152 3.36s-.384 2.536-1.152 3.384c-.768.832-1.768 1.248-3 1.248zm10.008-9.072h2.856L389.005 166h-2.856l11.472-16.8zm-10.008 7.104c.544 0 .968-.224 1.272-.672.32-.448.48-1.112.48-1.992 0-.88-.16-1.544-.48-1.992-.304-.448-.728-.672-1.272-.672-.528 0-.952.232-1.272.696-.32.448-.48 1.104-.48 1.968 0 .864.16 1.528.48 1.992.32.448.744.672 1.272.672zm11.4 9.888c-.8 0-1.52-.184-2.16-.552-.624-.384-1.112-.928-1.464-1.632-.352-.704-.528-1.52-.528-2.448 0-.928.176-1.744.528-2.448.352-.704.84-1.24 1.464-1.608.64-.384 1.36-.576 2.16-.576 1.232 0 2.232.424 3 1.272.784.832 1.176 1.952 1.176 3.36s-.392 2.536-1.176 3.384c-.768.832-1.768 1.248-3 1.248zm0-1.968c.544 0 .968-.224 1.272-.672.32-.464.48-1.128.48-1.992 0-.864-.16-1.52-.48-1.968-.304-.464-.728-.696-1.272-.696-.528 0-.952.224-1.272.672-.32.448-.48 1.112-.48 1.992 0 .88.16 1.544.48 1.992.32.448.744.672 1.272.672z" fill="#A2DC89"/><path d="M323.806 183.744c.589.295 1.037.68 1.343 1.156.317.476.476 1.026.476 1.649 0 .737-.21 1.383-.629 1.938-.419.544-1.009.969-1.768 1.275-.759.295-1.638.442-2.635.442-.997 0-1.876-.147-2.635-.442-.748-.306-1.332-.731-1.751-1.275-.408-.555-.612-1.201-.612-1.938 0-.623.153-1.173.459-1.649.317-.476.765-.861 1.343-1.156a2.928 2.928 0 01-1.02-1.02 2.84 2.84 0 01-.357-1.428c0-.691.193-1.292.578-1.802.385-.51.924-.901 1.615-1.173.691-.283 1.485-.425 2.38-.425.907 0 1.706.142 2.397.425.703.272 1.247.663 1.632 1.173.385.51.578 1.111.578 1.802a2.84 2.84 0 01-.357 1.428 2.89 2.89 0 01-1.037 1.02zm-3.213-3.825c-.555 0-1.003.136-1.343.408-.329.261-.493.623-.493 1.088 0 .453.164.81.493 1.071.329.261.776.391 1.343.391s1.02-.13 1.36-.391c.34-.261.51-.618.51-1.071 0-.465-.17-.827-.51-1.088-.34-.272-.793-.408-1.36-.408zm0 8.262c.691 0 1.235-.153 1.632-.459.408-.317.612-.737.612-1.258s-.204-.935-.612-1.241c-.397-.306-.941-.459-1.632-.459-.68 0-1.218.153-1.615.459-.397.306-.595.72-.595 1.241 0 .533.198.952.595 1.258.397.306.935.459 1.615.459zm8.881-3.655c-.873 0-1.587-.295-2.142-.884-.544-.601-.816-1.4-.816-2.397 0-.997.272-1.791.816-2.38.555-.601 1.269-.901 2.142-.901.872 0 1.581.3 2.125.901.544.589.816 1.383.816 2.38 0 .997-.272 1.796-.816 2.397-.544.589-1.253.884-2.125.884zm7.089-6.426h2.023L330.46 190h-2.023l8.126-11.9zm-7.089 5.032c.385 0 .685-.159.901-.476.226-.317.34-.788.34-1.411s-.114-1.094-.34-1.411a1.03 1.03 0 00-.901-.476c-.374 0-.675.164-.901.493-.227.317-.34.782-.34 1.394 0 .612.113 1.082.34 1.411.226.317.527.476.901.476zm8.075 7.004c-.567 0-1.077-.13-1.53-.391a2.777 2.777 0 01-1.037-1.156c-.25-.499-.374-1.077-.374-1.734s.124-1.235.374-1.734a2.666 2.666 0 011.037-1.139 2.914 2.914 0 011.53-.408c.872 0 1.581.3 2.125.901.555.589.833 1.383.833 2.38 0 .997-.278 1.796-.833 2.397-.544.589-1.253.884-2.125.884zm0-1.394c.385 0 .685-.159.901-.476.226-.329.34-.799.34-1.411s-.114-1.077-.34-1.394a1.02 1.02 0 00-.901-.493c-.374 0-.675.159-.901.476-.227.317-.34.788-.34 1.411s.113 1.094.34 1.411c.226.317.527.476.901.476z" fill="#E99A3D"/><mask id="mask16_4709_10" style="mask-type:alpha" maskUnits="userSpaceOnUse" x="509" y="105" width="53" height="237"><path d="M509 116.45l26.044-11.219 26.044 11.219v214.764l-26.044 10.017L509 331.214V116.45z" fill="#05030E"/></mask><g mask="url(#mask16_4709_10)"><path d="M509 214.689l26.044-11.219 26.044 11.219v214.764l-26.044 10.017L509 429.453V214.689z" fill="#D5AB32"/><g opacity=".25"><path d="M509 193.854l26.044-11.219 26.044 11.219v214.764l-26.044 10.017L509 408.618V193.854z" fill="#DC9839" fill-opacity=".6"/><mask id="mask17_4709_10" style="mask-type:alpha" maskUnits="userSpaceOnUse" x="509" y="182" width="53" height="237"><path d="M509 193.854l26.044-11.219 26.044 11.219v214.764l-26.044 10.017L509 408.618V193.854z" fill="#7EE8A0"/></mask><g mask="url(#mask17_4709_10)"><path d="M490.569 186.641l44.876 17.23v215.164l-37.664-14.424-7.212-217.97z" fill="#DC9839" fill-opacity=".6"/></g></g><g opacity=".5"><path d="M509 202.668l26.044-11.219 26.044 11.219v214.764l-26.044 10.017L509 417.432V202.668z" fill="#DC9839" fill-opacity=".6"/><mask id="mask18_4709_10" style="mask-type:alpha" maskUnits="userSpaceOnUse" x="509" y="191" width="53" height="237"><path d="M509 202.668l26.044-11.219 26.044 11.219v214.764l-26.044 10.017L509 417.432V202.668z" fill="#7EE8A0"/></mask><g mask="url(#mask18_4709_10)"><path d="M490.569 195.456l44.876 17.229V427.85l-37.664-14.424-7.212-217.97z" fill="#DC9839" fill-opacity=".6"/></g></g></g><mask id="mask19_4709_10" style="mask-type:alpha" maskUnits="userSpaceOnUse" x="509" y="105" width="53" height="237"><path d="M509 116.45l26.044-11.219 26.044 11.219v214.764l-26.044 10.017L509 331.214V116.45z" fill="#7EE8A0"/></mask><g mask="url(#mask19_4709_10)"><path d="M490.569 209.808l44.876 17.229v215.165l-37.664-14.424-7.212-217.97z" fill="#BF8C44" fill-opacity=".6"/></g><mask id="mask20_4709_10" style="mask-type:alpha" maskUnits="userSpaceOnUse" x="553" y="95" width="60" height="270"><path d="M553 107.799L582.711 95l29.712 12.799v245.004l-29.712 11.428L553 352.803V107.799z" fill="#05030E"/></mask><g mask="url(#mask20_4709_10)"><path d="M553 185.799L582.711 173l29.712 12.799v245.004l-29.712 11.428L553 430.803V185.799z" fill="#7EE8A0"/><g opacity=".25"><path d="M553 162.03l29.711-12.799 29.712 12.799v245.004l-29.712 11.428L553 407.034V162.03z" fill="#7EE8A0"/><mask id="mask21_4709_10" style="mask-type:alpha" maskUnits="userSpaceOnUse" x="553" y="149" width="60" height="270"><path d="M553 162.03l29.711-12.799 29.712 12.799v245.004l-29.712 11.428L553 407.034V162.03z" fill="#7EE8A0"/></mask><g mask="url(#mask21_4709_10)"><path d="M531.973 153.802l51.195 19.655v245.462l-42.967-16.456-8.228-248.661z" fill="#75CF92"/></g></g><g opacity=".5"><path d="M553 172.086l29.711-12.799 29.712 12.799v245.005l-29.712 11.427L553 417.091V172.086z" fill="#7EE8A0"/><mask id="mask22_4709_10" style="mask-type:alpha" maskUnits="userSpaceOnUse" x="553" y="159" width="60" height="270"><path d="M553 172.086l29.711-12.799 29.712 12.799v245.005l-29.712 11.427L553 417.091V172.086z" fill="#7EE8A0"/></mask><g mask="url(#mask22_4709_10)"><path d="M531.973 163.858l51.195 19.655v245.462l-42.967-16.455-8.228-248.662z" fill="#75CF92"/></g></g></g><mask id="mask23_4709_10" style="mask-type:alpha" maskUnits="userSpaceOnUse" x="553" y="95" width="60" height="270"><path d="M553 107.799L582.711 95l29.712 12.799v245.004l-29.712 11.428L553 352.803V107.799z" fill="#7EE8A0"/></mask><g mask="url(#mask23_4709_10)"><path d="M531.973 180.231l51.195 19.655v245.462l-42.967-16.456-8.228-248.661z" fill="#75CF92"/></g><path d="M568.416 111.2V128h-3.888v-13.68h-3.36v-3.12h7.248zm8.678 6.312c2.368 0 4.112.472 5.232 1.416 1.136.944 1.704 2.208 1.704 3.792a5.33 5.33 0 01-.768 2.808c-.512.832-1.296 1.504-2.352 2.016-1.04.496-2.328.744-3.864.744-1.184 0-2.352-.152-3.504-.456-1.136-.32-2.104-.768-2.904-1.344l1.536-2.976c.64.48 1.376.856 2.208 1.128a8.683 8.683 0 002.568.384c.976 0 1.744-.192 2.304-.576.56-.384.84-.92.84-1.608 0-.72-.296-1.264-.888-1.632-.576-.368-1.584-.552-3.024-.552h-4.296l.864-9.456h10.248v3.12h-7.008l-.264 3.192h1.368zm12.168 2.76c-1.232 0-2.24-.416-3.024-1.248-.768-.848-1.152-1.976-1.152-3.384s.384-2.528 1.152-3.36c.784-.848 1.792-1.272 3.024-1.272s2.232.424 3 1.272c.768.832 1.152 1.952 1.152 3.36s-.384 2.536-1.152 3.384c-.768.832-1.768 1.248-3 1.248zm10.008-9.072h2.856L590.654 128h-2.856l11.472-16.8zm-10.008 7.104c.544 0 .968-.224 1.272-.672.32-.448.48-1.112.48-1.992 0-.88-.16-1.544-.48-1.992-.304-.448-.728-.672-1.272-.672-.528 0-.952.232-1.272.696-.32.448-.48 1.104-.48 1.968 0 .864.16 1.528.48 1.992.32.448.744.672 1.272.672zm11.4 9.888c-.8 0-1.52-.184-2.16-.552-.624-.384-1.112-.928-1.464-1.632-.352-.704-.528-1.52-.528-2.448 0-.928.176-1.744.528-2.448.352-.704.84-1.24 1.464-1.608.64-.384 1.36-.576 2.16-.576 1.232 0 2.232.424 3 1.272.784.832 1.176 1.952 1.176 3.36s-.392 2.536-1.176 3.384c-.768.832-1.768 1.248-3 1.248zm0-1.968c.544 0 .968-.224 1.272-.672.32-.464.48-1.128.48-1.992 0-.864-.16-1.52-.48-1.968-.304-.464-.728-.696-1.272-.696-.528 0-.952.224-1.272.672-.32.448-.48 1.112-.48 1.992 0 .88.16 1.544.48 1.992.32.448.744.672 1.272.672z" fill="#A2DC89"/><path d="M518.253 151.1V163h-2.754v-9.69h-2.38v-2.21h5.134zm7.167 12.104c-.986 0-1.864-.244-2.635-.731-.77-.487-1.377-1.19-1.819-2.108-.43-.929-.646-2.034-.646-3.315 0-1.281.216-2.38.646-3.298.442-.929 1.049-1.638 1.819-2.125.771-.487 1.649-.731 2.635-.731.986 0 1.865.244 2.635.731.771.487 1.372 1.196 1.802 2.125.442.918.663 2.017.663 3.298 0 1.281-.221 2.386-.663 3.315-.43.918-1.031 1.621-1.802 2.108-.77.487-1.649.731-2.635.731zm0-2.329c.726 0 1.292-.312 1.7-.935.42-.623.629-1.587.629-2.89 0-1.303-.209-2.267-.629-2.89-.408-.623-.974-.935-1.7-.935-.714 0-1.28.312-1.7.935-.408.623-.612 1.587-.612 2.89 0 1.303.204 2.267.612 2.89.42.623.986.935 1.7.935zm9.192-3.349c-.872 0-1.586-.295-2.142-.884-.544-.601-.816-1.4-.816-2.397 0-.997.272-1.791.816-2.38.556-.601 1.27-.901 2.142-.901.873 0 1.581.3 2.125.901.544.589.816 1.383.816 2.38 0 .997-.272 1.796-.816 2.397-.544.589-1.252.884-2.125.884zm7.089-6.426h2.023l-8.126 11.9h-2.023l8.126-11.9zm-7.089 5.032c.386 0 .686-.159.901-.476.227-.317.34-.788.34-1.411s-.113-1.094-.34-1.411a1.029 1.029 0 00-.901-.476c-.374 0-.674.164-.901.493-.226.317-.34.782-.34 1.394 0 .612.114 1.082.34 1.411.227.317.527.476.901.476zm8.075 7.004c-.566 0-1.076-.13-1.53-.391a2.784 2.784 0 01-1.037-1.156c-.249-.499-.374-1.077-.374-1.734s.125-1.235.374-1.734c.25-.499.595-.878 1.037-1.139a2.92 2.92 0 011.53-.408c.873 0 1.581.3 2.125.901.556.589.833 1.383.833 2.38 0 .997-.277 1.796-.833 2.397-.544.589-1.252.884-2.125.884zm0-1.394c.386 0 .686-.159.901-.476.227-.329.34-.799.34-1.411s-.113-1.077-.34-1.394a1.018 1.018 0 00-.901-.493c-.374 0-.674.159-.901.476-.226.317-.34.788-.34 1.411s.114 1.094.34 1.411c.227.317.527.476.901.476z" fill="#E99A3D"/><mask id="mask24_4709_10" style="mask-type:alpha" maskUnits="userSpaceOnUse" x="710" y="105" width="53" height="237"><path d="M710 116.45l26.044-11.219 26.044 11.219v214.764l-26.044 10.017L710 331.214V116.45z" fill="#05030E"/></mask><g mask="url(#mask24_4709_10)"><path d="M710 187.689l26.044-11.219 26.044 11.219v214.764l-26.044 10.017L710 402.453V187.689z" fill="#D5AB32"/><g opacity=".25"><path d="M710 166.854l26.044-11.219 26.044 11.219v214.764l-26.044 10.017L710 381.618V166.854z" fill="#DC9839" fill-opacity=".6"/><mask id="mask25_4709_10" style="mask-type:alpha" maskUnits="userSpaceOnUse" x="710" y="155" width="53" height="237"><path d="M710 166.854l26.044-11.219 26.044 11.219v214.764l-26.044 10.017L710 381.618V166.854z" fill="#7EE8A0"/></mask><g mask="url(#mask25_4709_10)"><path d="M691.569 159.641l44.876 17.23v215.164l-37.664-14.424-7.212-217.97z" fill="#DC9839" fill-opacity=".6"/></g></g><g opacity=".5"><path d="M710 175.668l26.044-11.219 26.044 11.219v214.764l-26.044 10.017L710 390.432V175.668z" fill="#DC9839" fill-opacity=".6"/><mask id="mask26_4709_10" style="mask-type:alpha" maskUnits="userSpaceOnUse" x="710" y="164" width="53" height="237"><path d="M710 175.668l26.044-11.219 26.044 11.219v214.764l-26.044 10.017L710 390.432V175.668z" fill="#7EE8A0"/></mask><g mask="url(#mask26_4709_10)"><path d="M691.569 168.456l44.876 17.229V400.85l-37.664-14.424-7.212-217.97z" fill="#DC9839" fill-opacity=".6"/></g></g></g><mask id="mask27_4709_10" style="mask-type:alpha" maskUnits="userSpaceOnUse" x="710" y="105" width="53" height="237"><path d="M710 116.45l26.044-11.219 26.044 11.219v214.764l-26.044 10.017L710 331.214V116.45z" fill="#7EE8A0"/></mask><g mask="url(#mask27_4709_10)"><path d="M691.569 182.808l44.876 17.229v215.165l-37.664-14.424-7.212-217.97z" fill="#BF8C44" fill-opacity=".6"/></g><mask id="mask28_4709_10" style="mask-type:alpha" maskUnits="userSpaceOnUse" x="754" y="95" width="60" height="270"><path d="M754 107.799L783.711 95l29.712 12.799v245.004l-29.712 11.428L754 352.803V107.799z" fill="#05030E"/></mask><g mask="url(#mask28_4709_10)"><path d="M754 145.799L783.711 133l29.712 12.799v245.004l-29.712 11.428L754 390.803V145.799z" fill="#7EE8A0"/><g opacity=".25"><path d="M754 122.03l29.711-12.799 29.712 12.799v245.004l-29.712 11.428L754 367.034V122.03z" fill="#7EE8A0"/><mask id="mask29_4709_10" style="mask-type:alpha" maskUnits="userSpaceOnUse" x="754" y="109" width="60" height="270"><path d="M754 122.03l29.711-12.799 29.712 12.799v245.004l-29.712 11.428L754 367.034V122.03z" fill="#7EE8A0"/></mask><g mask="url(#mask29_4709_10)"><path d="M732.973 113.802l51.195 19.655v245.462l-42.967-16.456-8.228-248.661z" fill="#75CF92"/></g></g><g opacity=".5"><path d="M754 132.086l29.711-12.799 29.712 12.799v245.005l-29.712 11.427L754 377.091V132.086z" fill="#7EE8A0"/><mask id="mask30_4709_10" style="mask-type:alpha" maskUnits="userSpaceOnUse" x="754" y="119" width="60" height="270"><path d="M754 132.086l29.711-12.799 29.712 12.799v245.005l-29.712 11.427L754 377.091V132.086z" fill="#7EE8A0"/></mask><g mask="url(#mask30_4709_10)"><path d="M732.973 123.858l51.195 19.655v245.462l-42.967-16.455-8.228-248.662z" fill="#75CF92"/></g></g></g><mask id="mask31_4709_10" style="mask-type:alpha" maskUnits="userSpaceOnUse" x="754" y="95" width="60" height="270"><path d="M754 107.799L783.711 95l29.712 12.799v245.004l-29.712 11.428L754 352.803V107.799z" fill="#7EE8A0"/></mask><g mask="url(#mask31_4709_10)"><path d="M732.973 140.231l51.195 19.655v245.462l-42.967-16.456-8.228-248.661z" fill="#75CF92"/></g><path d="M769.416 73.2V90h-3.888V76.32h-3.36V73.2h7.248zm14.414 7.968c.832.416 1.464.96 1.896 1.632.448.672.672 1.448.672 2.328 0 1.04-.296 1.952-.888 2.736-.592.768-1.424 1.368-2.496 1.8-1.072.416-2.312.624-3.72.624-1.408 0-2.648-.208-3.72-.624-1.056-.432-1.88-1.032-2.472-1.8-.576-.784-.864-1.696-.864-2.736 0-.88.216-1.656.648-2.328.448-.672 1.08-1.216 1.896-1.632-.624-.384-1.104-.864-1.44-1.44-.336-.592-.504-1.264-.504-2.016 0-.976.272-1.824.816-2.544.544-.72 1.304-1.272 2.28-1.656.976-.4 2.096-.6 3.36-.6 1.28 0 2.408.2 3.384.6.992.384 1.76.936 2.304 1.656.544.72.816 1.568.816 2.544 0 .752-.168 1.424-.504 2.016-.336.576-.824 1.056-1.464 1.44zm-4.536-5.4c-.784 0-1.416.192-1.896.576-.464.368-.696.88-.696 1.536 0 .64.232 1.144.696 1.512.464.368 1.096.552 1.896.552.8 0 1.44-.184 1.92-.552.48-.368.72-.872.72-1.512 0-.656-.24-1.168-.72-1.536-.48-.384-1.12-.576-1.92-.576zm0 11.664c.976 0 1.744-.216 2.304-.648.576-.448.864-1.04.864-1.776s-.288-1.32-.864-1.752c-.56-.432-1.328-.648-2.304-.648-.96 0-1.72.216-2.28.648-.56.432-.84 1.016-.84 1.752 0 .752.28 1.344.84 1.776.56.432 1.32.648 2.28.648zm12.538-5.16c-1.232 0-2.24-.416-3.024-1.248-.768-.848-1.152-1.976-1.152-3.384s.384-2.528 1.152-3.36c.784-.848 1.792-1.272 3.024-1.272s2.232.424 3 1.272c.768.832 1.152 1.952 1.152 3.36s-.384 2.536-1.152 3.384c-.768.832-1.768 1.248-3 1.248zM801.84 73.2h2.856L793.224 90h-2.856l11.472-16.8zm-10.008 7.104c.544 0 .968-.224 1.272-.672.32-.448.48-1.112.48-1.992 0-.88-.16-1.544-.48-1.992-.304-.448-.728-.672-1.272-.672-.528 0-.952.232-1.272.696-.32.448-.48 1.104-.48 1.968 0 .864.16 1.528.48 1.992.32.448.744.672 1.272.672zm11.4 9.888c-.8 0-1.52-.184-2.16-.552-.624-.384-1.112-.928-1.464-1.632-.352-.704-.528-1.52-.528-2.448 0-.928.176-1.744.528-2.448.352-.704.84-1.24 1.464-1.608.64-.384 1.36-.576 2.16-.576 1.232 0 2.232.424 3 1.272.784.832 1.176 1.952 1.176 3.36s-.392 2.536-1.176 3.384c-.768.832-1.768 1.248-3 1.248zm0-1.968c.544 0 .968-.224 1.272-.672.32-.464.48-1.128.48-1.992 0-.864-.16-1.52-.48-1.968-.304-.464-.728-.696-1.272-.696-.528 0-.952.224-1.272.672-.32.448-.48 1.112-.48 1.992 0 .88.16 1.544.48 1.992.32.448.744.672 1.272.672z" fill="#A2DC89"/><path d="M719.253 127.1V139h-2.754v-9.69h-2.38v-2.21h5.134zm10.958 9.656V139h-8.993v-1.785l4.59-4.335c.488-.465.816-.861.986-1.19.17-.34.255-.674.255-1.003 0-.476-.164-.839-.493-1.088-.317-.261-.787-.391-1.411-.391-.521 0-.991.102-1.411.306a2.64 2.64 0 00-1.054.884l-2.006-1.292c.465-.691 1.105-1.23 1.921-1.615.816-.397 1.751-.595 2.805-.595.884 0 1.655.147 2.312.442.669.283 1.185.691 1.547 1.224.374.521.561 1.139.561 1.853a4.15 4.15 0 01-.408 1.819c-.272.567-.799 1.213-1.581 1.938l-2.737 2.584h5.117zm4.057-3.23c-.873 0-1.587-.295-2.142-.884-.544-.601-.816-1.4-.816-2.397 0-.997.272-1.791.816-2.38.555-.601 1.269-.901 2.142-.901.872 0 1.581.3 2.125.901.544.589.816 1.383.816 2.38 0 .997-.272 1.796-.816 2.397-.544.589-1.253.884-2.125.884zm7.089-6.426h2.023l-8.126 11.9h-2.023l8.126-11.9zm-7.089 5.032c.385 0 .685-.159.901-.476.226-.317.34-.788.34-1.411s-.114-1.094-.34-1.411a1.03 1.03 0 00-.901-.476c-.374 0-.675.164-.901.493-.227.317-.34.782-.34 1.394 0 .612.113 1.082.34 1.411.226.317.527.476.901.476zm8.075 7.004c-.567 0-1.077-.13-1.53-.391a2.777 2.777 0 01-1.037-1.156c-.25-.499-.374-1.077-.374-1.734s.124-1.235.374-1.734a2.666 2.666 0 011.037-1.139 2.914 2.914 0 011.53-.408c.872 0 1.581.3 2.125.901.555.589.833 1.383.833 2.38 0 .997-.278 1.796-.833 2.397-.544.589-1.253.884-2.125.884zm0-1.394c.385 0 .685-.159.901-.476.226-.329.34-.799.34-1.411s-.114-1.077-.34-1.394a1.02 1.02 0 00-.901-.493c-.374 0-.675.159-.901.476-.227.317-.34.788-.34 1.411s.113 1.094.34 1.411c.226.317.527.476.901.476z" fill="#E99A3D"/><mask id="mask32_4709_10" style="mask-type:alpha" maskUnits="userSpaceOnUse" x="911" y="105" width="53" height="237"><path d="M911 116.45l26.044-11.219 26.044 11.219v214.764l-26.044 10.017L911 331.214V116.45z" fill="#05030E"/></mask><g mask="url(#mask32_4709_10)"><path d="M911 154.689l26.044-11.219 26.044 11.219v214.764l-26.044 10.017L911 369.453V154.689z" fill="#D5AB32"/><g opacity=".25"><path d="M911 133.854l26.044-11.219 26.044 11.219v214.764l-26.044 10.017L911 348.618V133.854z" fill="#DC9839" fill-opacity=".6"/><mask id="mask33_4709_10" style="mask-type:alpha" maskUnits="userSpaceOnUse" x="911" y="122" width="53" height="237"><path d="M911 133.854l26.044-11.219 26.044 11.219v214.764l-26.044 10.017L911 348.618V133.854z" fill="#7EE8A0"/></mask><g mask="url(#mask33_4709_10)"><path d="M892.569 126.641l44.876 17.23v215.164l-37.664-14.424-7.212-217.97z" fill="#DC9839" fill-opacity=".6"/></g></g><g opacity=".5"><path d="M911 142.668l26.044-11.219 26.044 11.219v214.764l-26.044 10.017L911 357.432V142.668z" fill="#DC9839" fill-opacity=".6"/><mask id="mask34_4709_10" style="mask-type:alpha" maskUnits="userSpaceOnUse" x="911" y="131" width="53" height="237"><path d="M911 142.668l26.044-11.219 26.044 11.219v214.764l-26.044 10.017L911 357.432V142.668z" fill="#7EE8A0"/></mask><g mask="url(#mask34_4709_10)"><path d="M892.569 135.456l44.876 17.229V367.85l-37.664-14.424-7.212-217.97z" fill="#DC9839" fill-opacity=".6"/></g></g></g><mask id="mask35_4709_10" style="mask-type:alpha" maskUnits="userSpaceOnUse" x="911" y="105" width="53" height="237"><path d="M911 116.45l26.044-11.219 26.044 11.219v214.764l-26.044 10.017L911 331.214V116.45z" fill="#7EE8A0"/></mask><g mask="url(#mask35_4709_10)"><path d="M892.569 149.808l44.876 17.229v215.165l-37.664-14.424-7.212-217.97z" fill="#BF8C44" fill-opacity=".6"/></g><mask id="mask36_4709_10" style="mask-type:alpha" maskUnits="userSpaceOnUse" x="955" y="92" width="60" height="270"><path d="M955 104.799L984.711 92l29.709 12.799v245.004l-29.709 11.428L955 349.803V104.799z" fill="#05030E"/></mask><g mask="url(#mask36_4709_10)"><path d="M955 134.799L984.711 122l29.709 12.799v245.004l-29.709 11.428L955 379.803V134.799z" fill="#7EE8A0"/><g opacity=".25"><path d="M955 111.03l29.711-12.799 29.709 12.799v245.004l-29.709 11.428L955 356.034V111.03z" fill="#7EE8A0"/><mask id="mask37_4709_10" style="mask-type:alpha" maskUnits="userSpaceOnUse" x="955" y="98" width="60" height="270"><path d="M955 111.03l29.711-12.799 29.709 12.799v245.004l-29.709 11.428L955 356.034V111.03z" fill="#7EE8A0"/></mask><g mask="url(#mask37_4709_10)"><path d="M933.973 102.802l51.195 19.655v245.462l-42.967-16.456-8.228-248.661z" fill="#75CF92"/></g></g><g opacity=".5"><path d="M955 121.086l29.711-12.799 29.709 12.799v245.005l-29.709 11.427L955 366.091V121.086z" fill="#7EE8A0"/><mask id="mask38_4709_10" style="mask-type:alpha" maskUnits="userSpaceOnUse" x="955" y="108" width="60" height="270"><path d="M955 121.086l29.711-12.799 29.709 12.799v245.005l-29.709 11.427L955 366.091V121.086z" fill="#7EE8A0"/></mask><g mask="url(#mask38_4709_10)"><path d="M933.973 112.858l51.195 19.655v245.462l-42.967-16.455-8.228-248.662z" fill="#75CF92"/></g></g></g><mask id="mask39_4709_10" style="mask-type:alpha" maskUnits="userSpaceOnUse" x="955" y="92" width="60" height="270"><path d="M955 104.799L984.711 92l29.709 12.799v245.004l-29.709 11.428L955 349.803V104.799z" fill="#7EE8A0"/></mask><g mask="url(#mask39_4709_10)"><path d="M933.973 129.231l51.195 19.655v245.462l-42.967-16.456-8.228-248.661z" fill="#75CF92"/></g><mask id="mask40_4709_10" style="mask-type:alpha" maskUnits="userSpaceOnUse" x="955" y="35" width="60" height="270"><path d="M955 47.799L984.711 35l29.709 12.799v245.004l-29.709 11.428L955 292.803V47.799z" fill="#05030E"/></mask><g mask="url(#mask40_4709_10)"><path d="M955 77.799L984.711 65l29.709 12.799v245.004l-29.709 11.428L955 322.803V77.799z" fill="#7EE8A0"/><g opacity=".25"><path d="M955 54.03l29.711-12.799 29.709 12.799v245.004l-29.709 11.428L955 299.034V54.03z" fill="#7EE8A0"/><mask id="mask41_4709_10" style="mask-type:alpha" maskUnits="userSpaceOnUse" x="955" y="41" width="60" height="270"><path d="M955 54.03l29.711-12.799 29.709 12.799v245.004l-29.709 11.428L955 299.034V54.03z" fill="#7EE8A0"/></mask><g mask="url(#mask41_4709_10)"><path d="M933.973 45.802l51.195 19.655V310.92l-42.967-16.456-8.228-248.661z" fill="#75CF92"/></g></g><g opacity=".5"><path d="M955 64.086l29.711-12.799 29.709 12.799V309.09l-29.709 11.427L955 309.091V64.086z" fill="#7EE8A0"/><mask id="mask42_4709_10" style="mask-type:alpha" maskUnits="userSpaceOnUse" x="955" y="51" width="60" height="270"><path d="M955 64.086l29.711-12.799 29.709 12.799V309.09l-29.709 11.427L955 309.091V64.086z" fill="#7EE8A0"/></mask><g mask="url(#mask42_4709_10)"><path d="M933.973 55.858l51.195 19.655v245.462l-42.967-16.455-8.228-248.662z" fill="#75CF92"/></g></g></g><mask id="mask43_4709_10" style="mask-type:alpha" maskUnits="userSpaceOnUse" x="955" y="35" width="60" height="270"><path d="M955 47.799L984.711 35l29.709 12.799v245.004l-29.709 11.428L955 292.803V47.799z" fill="#7EE8A0"/></mask><g mask="url(#mask43_4709_10)"><path d="M933.973 72.231l51.195 19.655v245.462l-42.967-16.456-8.228-248.661z" fill="#75CF92"/></g><path d="M963.488 16.832V20h-12.696v-2.52l6.48-6.12c.688-.656 1.152-1.216 1.392-1.68.24-.48.36-.952.36-1.416 0-.672-.232-1.184-.696-1.536-.448-.368-1.112-.552-1.992-.552-.736 0-1.4.144-1.992.432a3.718 3.718 0 00-1.488 1.248l-2.832-1.824c.656-.976 1.56-1.736 2.712-2.28 1.152-.56 2.472-.84 3.96-.84 1.248 0 2.336.208 3.264.624.944.4 1.672.976 2.184 1.728.528.736.792 1.608.792 2.616 0 .912-.192 1.768-.576 2.568-.384.8-1.128 1.712-2.232 2.736l-3.864 3.648h7.224zm14.156 0V20h-12.696v-2.52l6.48-6.12c.688-.656 1.152-1.216 1.392-1.68.24-.48.36-.952.36-1.416 0-.672-.232-1.184-.696-1.536-.448-.368-1.112-.552-1.992-.552-.736 0-1.4.144-1.992.432a3.718 3.718 0 00-1.488 1.248l-2.832-1.824c.656-.976 1.56-1.736 2.712-2.28 1.152-.56 2.472-.84 3.96-.84 1.248 0 2.336.208 3.264.624.944.4 1.672.976 2.184 1.728.528.736.792 1.608.792 2.616 0 .912-.192 1.768-.576 2.568-.384.8-1.128 1.712-2.232 2.736l-3.864 3.648h7.224zm4.047 3.36c-.656 0-1.208-.224-1.656-.672-.448-.448-.672-1.008-.672-1.68 0-.688.224-1.24.672-1.656.448-.432 1-.648 1.656-.648.656 0 1.208.216 1.656.648.448.416.672.968.672 1.656 0 .672-.224 1.232-.672 1.68-.448.448-1 .672-1.656.672zm9.833-10.68c2.368 0 4.112.472 5.232 1.416 1.136.944 1.704 2.208 1.704 3.792a5.33 5.33 0 01-.768 2.808c-.512.832-1.296 1.504-2.352 2.016-1.04.496-2.328.744-3.864.744-1.184 0-2.352-.152-3.504-.456-1.136-.32-2.104-.768-2.904-1.344l1.536-2.976c.64.48 1.376.856 2.208 1.128a8.683 8.683 0 002.568.384c.976 0 1.744-.192 2.304-.576.56-.384.84-.92.84-1.608 0-.72-.296-1.264-.888-1.632-.576-.368-1.584-.552-3.024-.552h-4.296l.864-9.456h10.248v3.12h-7.008l-.264 3.192h1.368zm12.166 2.76c-1.23 0-2.24-.416-3.02-1.248-.771-.848-1.155-1.976-1.155-3.384s.384-2.528 1.155-3.36c.78-.848 1.79-1.272 3.02-1.272s2.23.424 3 1.272c.77.832 1.15 1.952 1.15 3.36s-.38 2.536-1.15 3.384c-.77.832-1.77 1.248-3 1.248zM1013.7 3.2h2.86L1005.08 20h-2.85l11.47-16.8zm-10.01 7.104c.55 0 .97-.224 1.27-.672.32-.448.48-1.112.48-1.992 0-.88-.16-1.544-.48-1.992-.3-.448-.72-.672-1.27-.672-.53 0-.95.232-1.27.696-.32.448-.48 1.104-.48 1.968 0 .864.16 1.528.48 1.992.32.448.74.672 1.27.672zm11.4 9.888c-.8 0-1.52-.184-2.16-.552a3.932 3.932 0 01-1.46-1.632c-.35-.704-.53-1.52-.53-2.448 0-.928.18-1.744.53-2.448.35-.704.84-1.24 1.46-1.608.64-.384 1.36-.576 2.16-.576 1.23 0 2.23.424 3 1.272.79.832 1.18 1.952 1.18 3.36s-.39 2.536-1.18 3.384c-.77.832-1.77 1.248-3 1.248zm0-1.968c.55 0 .97-.224 1.27-.672.32-.464.48-1.128.48-1.992 0-.864-.16-1.52-.48-1.968-.3-.464-.72-.696-1.27-.696-.53 0-.95.224-1.27.672-.32.448-.48 1.112-.48 1.992 0 .88.16 1.544.48 1.992.32.448.74.672 1.27.672z" fill="#A2DC89"/><path d="M920.253 94.1V106h-2.754v-9.69h-2.38V94.1h5.134zm6.147 4.471c1.678 0 2.913.334 3.706 1.003.805.669 1.207 1.564 1.207 2.686 0 .725-.181 1.388-.544 1.989-.362.589-.918 1.065-1.666 1.428-.736.351-1.649.527-2.737.527a9.706 9.706 0 01-2.482-.323c-.804-.227-1.49-.544-2.057-.952l1.088-2.108c.454.34.975.606 1.564.799.59.181 1.196.272 1.819.272.692 0 1.236-.136 1.632-.408.397-.272.595-.652.595-1.139 0-.51-.209-.895-.629-1.156-.408-.261-1.122-.391-2.142-.391h-3.043l.612-6.698h7.259v2.21h-4.964l-.187 2.261h.969zm8.619 1.955c-.873 0-1.587-.295-2.142-.884-.544-.6-.816-1.4-.816-2.397 0-.997.272-1.79.816-2.38.555-.6 1.269-.901 2.142-.901.872 0 1.581.3 2.125.901.544.59.816 1.383.816 2.38 0 .997-.272 1.796-.816 2.397-.544.589-1.253.884-2.125.884zm7.089-6.426h2.023l-8.126 11.9h-2.023l8.126-11.9zm-7.089 5.032c.385 0 .685-.159.901-.476.226-.317.34-.788.34-1.411s-.114-1.094-.34-1.411a1.03 1.03 0 00-.901-.476c-.374 0-.675.164-.901.493-.227.317-.34.782-.34 1.394 0 .612.113 1.082.34 1.411.226.317.527.476.901.476zm8.075 7.004c-.567 0-1.077-.13-1.53-.391a2.777 2.777 0 01-1.037-1.156c-.25-.499-.374-1.077-.374-1.734s.124-1.235.374-1.734a2.666 2.666 0 011.037-1.139 2.914 2.914 0 011.53-.408c.872 0 1.581.3 2.125.901.555.589.833 1.383.833 2.38 0 .997-.278 1.796-.833 2.397-.544.589-1.253.884-2.125.884zm0-1.394c.385 0 .685-.159.901-.476.226-.329.34-.799.34-1.411s-.114-1.077-.34-1.394a1.02 1.02 0 00-.901-.493c-.374 0-.675.159-.901.476-.227.317-.34.788-.34 1.411s.113 1.094.34 1.411c.226.317.527.476.901.476z" fill="#E99A3D"/><path d="M135.773 385.2v9.8h-1.386v-8.582h-2.212V385.2h3.598zm6.03 5.376h3.766v1.162h-3.766v-1.162zm11.793-1.47c1.4 0 2.427.266 3.08.798.663.523.994 1.241.994 2.156 0 .579-.14 1.101-.42 1.568-.271.457-.686.821-1.246 1.092-.551.261-1.232.392-2.044.392a6.559 6.559 0 01-2.002-.308c-.644-.215-1.176-.509-1.596-.882l.644-1.106c.336.317.765.574 1.288.77.523.187 1.073.28 1.652.28.737 0 1.307-.154 1.708-.462.411-.317.616-.747.616-1.288 0-.588-.224-1.031-.672-1.33-.448-.308-1.213-.462-2.296-.462h-2.226l.518-5.124h5.53v1.218h-4.354l-.266 2.688h1.092zm13.003 6.006c-.775 0-1.465-.196-2.072-.588-.597-.401-1.069-.98-1.414-1.736s-.518-1.652-.518-2.688c0-1.036.173-1.932.518-2.688.345-.756.817-1.33 1.414-1.722.607-.401 1.297-.602 2.072-.602.765 0 1.447.201 2.044.602.607.392 1.083.966 1.428 1.722s.518 1.652.518 2.688c0 1.036-.173 1.932-.518 2.688-.345.756-.821 1.335-1.428 1.736-.597.392-1.279.588-2.044.588zm0-1.246c.784 0 1.409-.322 1.876-.966.476-.644.714-1.577.714-2.8 0-1.223-.238-2.156-.714-2.8-.467-.644-1.092-.966-1.876-.966-.793 0-1.428.322-1.904.966-.467.644-.7 1.577-.7 2.8 0 1.223.233 2.156.7 2.8.476.644 1.111.966 1.904.966zm9.338 1.246c-.775 0-1.466-.196-2.072-.588-.598-.401-1.069-.98-1.414-1.736-.346-.756-.518-1.652-.518-2.688 0-1.036.172-1.932.518-2.688.345-.756.816-1.33 1.414-1.722.606-.401 1.297-.602 2.072-.602.765 0 1.446.201 2.044.602.606.392 1.082.966 1.428 1.722.345.756.518 1.652.518 2.688 0 1.036-.173 1.932-.518 2.688-.346.756-.822 1.335-1.428 1.736-.598.392-1.279.588-2.044.588zm0-1.246c.784 0 1.409-.322 1.876-.966.476-.644.714-1.577.714-2.8 0-1.223-.238-2.156-.714-2.8-.467-.644-1.092-.966-1.876-.966-.794 0-1.428.322-1.904.966-.467.644-.7 1.577-.7 2.8 0 1.223.233 2.156.7 2.8.476.644 1.11.966 1.904.966zm9.338 1.246c-.775 0-1.466-.196-2.072-.588-.598-.401-1.069-.98-1.414-1.736-.346-.756-.518-1.652-.518-2.688 0-1.036.172-1.932.518-2.688.345-.756.816-1.33 1.414-1.722.606-.401 1.297-.602 2.072-.602.765 0 1.446.201 2.044.602.606.392 1.082.966 1.428 1.722.345.756.518 1.652.518 2.688 0 1.036-.173 1.932-.518 2.688-.346.756-.822 1.335-1.428 1.736-.598.392-1.279.588-2.044.588zm0-1.246c.784 0 1.409-.322 1.876-.966.476-.644.714-1.577.714-2.8 0-1.223-.238-2.156-.714-2.8-.467-.644-1.092-.966-1.876-.966-.794 0-1.428.322-1.904.966-.467.644-.7 1.577-.7 2.8 0 1.223.233 2.156.7 2.8.476.644 1.11.966 1.904.966zm135.388-4.76c1.4 0 2.427.266 3.08.798.663.523.994 1.241.994 2.156 0 .579-.14 1.101-.42 1.568-.27.457-.686.821-1.246 1.092-.55.261-1.232.392-2.044.392-.69 0-1.358-.103-2.002-.308-.644-.215-1.176-.509-1.596-.882l.644-1.106c.336.317.766.574 1.288.77a4.87 4.87 0 001.652.28c.738 0 1.307-.154 1.708-.462.411-.317.616-.747.616-1.288 0-.588-.224-1.031-.672-1.33-.448-.308-1.213-.462-2.296-.462h-2.226l.518-5.124h5.53v1.218h-4.354l-.266 2.688h1.092zm13.003 6.006c-.774 0-1.465-.196-2.072-.588-.597-.401-1.068-.98-1.414-1.736-.345-.756-.518-1.652-.518-2.688 0-1.036.173-1.932.518-2.688.346-.756.817-1.33 1.414-1.722.607-.401 1.298-.602 2.072-.602.766 0 1.447.201 2.044.602.607.392 1.083.966 1.428 1.722.346.756.518 1.652.518 2.688 0 1.036-.172 1.932-.518 2.688-.345.756-.821 1.335-1.428 1.736-.597.392-1.278.588-2.044.588zm0-1.246c.784 0 1.41-.322 1.876-.966.476-.644.714-1.577.714-2.8 0-1.223-.238-2.156-.714-2.8-.466-.644-1.092-.966-1.876-.966-.793 0-1.428.322-1.904.966-.466.644-.7 1.577-.7 2.8 0 1.223.234 2.156.7 2.8.476.644 1.111.966 1.904.966zm9.338 1.246c-.775 0-1.465-.196-2.072-.588-.597-.401-1.069-.98-1.414-1.736S339 391.136 339 390.1c0-1.036.173-1.932.518-2.688.345-.756.817-1.33 1.414-1.722.607-.401 1.297-.602 2.072-.602.765 0 1.447.201 2.044.602.607.392 1.083.966 1.428 1.722s.518 1.652.518 2.688c0 1.036-.173 1.932-.518 2.688-.345.756-.821 1.335-1.428 1.736-.597.392-1.279.588-2.044.588zm0-1.246c.784 0 1.409-.322 1.876-.966.476-.644.714-1.577.714-2.8 0-1.223-.238-2.156-.714-2.8-.467-.644-1.092-.966-1.876-.966-.793 0-1.428.322-1.904.966-.467.644-.7 1.577-.7 2.8 0 1.223.233 2.156.7 2.8.476.644 1.111.966 1.904.966zm8.331-8.666v9.8h-1.386v-8.582h-2.212V385.2h3.598zm6.029 5.376h3.766v1.162h-3.766v-1.162zm12.746-1.26c.961.093 1.694.392 2.198.896.504.495.756 1.129.756 1.904 0 .56-.14 1.069-.42 1.526-.28.448-.7.807-1.26 1.078-.551.261-1.228.392-2.03.392-.7 0-1.372-.103-2.016-.308-.644-.215-1.172-.509-1.582-.882l.644-1.106c.336.317.765.574 1.288.77.522.187 1.078.28 1.666.28.728 0 1.292-.154 1.694-.462.41-.308.616-.733.616-1.274s-.201-.961-.602-1.26c-.402-.299-1.008-.448-1.82-.448h-.784v-.98l2.464-3.024h-4.718V385.2h6.468v.952l-2.562 3.164zm8.263 5.796c-.774 0-1.465-.196-2.072-.588-.597-.401-1.068-.98-1.414-1.736-.345-.756-.518-1.652-.518-2.688 0-1.036.173-1.932.518-2.688.346-.756.817-1.33 1.414-1.722.607-.401 1.298-.602 2.072-.602.766 0 1.447.201 2.044.602.607.392 1.083.966 1.428 1.722.346.756.518 1.652.518 2.688 0 1.036-.172 1.932-.518 2.688-.345.756-.821 1.335-1.428 1.736-.597.392-1.278.588-2.044.588zm0-1.246c.784 0 1.41-.322 1.876-.966.476-.644.714-1.577.714-2.8 0-1.223-.238-2.156-.714-2.8-.466-.644-1.092-.966-1.876-.966-.793 0-1.428.322-1.904.966-.466.644-.7 1.577-.7 2.8 0 1.223.234 2.156.7 2.8.476.644 1.111.966 1.904.966zm13.098 1.246c-.775 0-1.465-.196-2.072-.588-.597-.401-1.069-.98-1.414-1.736s-.518-1.652-.518-2.688c0-1.036.173-1.932.518-2.688.345-.756.817-1.33 1.414-1.722.607-.401 1.297-.602 2.072-.602.765 0 1.447.201 2.044.602.607.392 1.083.966 1.428 1.722s.518 1.652.518 2.688c0 1.036-.173 1.932-.518 2.688-.345.756-.821 1.335-1.428 1.736-.597.392-1.279.588-2.044.588zm0-1.246c.784 0 1.409-.322 1.876-.966.476-.644.714-1.577.714-2.8 0-1.223-.238-2.156-.714-2.8-.467-.644-1.092-.966-1.876-.966-.793 0-1.428.322-1.904.966-.467.644-.7 1.577-.7 2.8 0 1.223.233 2.156.7 2.8.476.644 1.111.966 1.904.966zm9.338 1.246c-.775 0-1.466-.196-2.072-.588-.598-.401-1.069-.98-1.414-1.736-.346-.756-.518-1.652-.518-2.688 0-1.036.172-1.932.518-2.688.345-.756.816-1.33 1.414-1.722.606-.401 1.297-.602 2.072-.602.765 0 1.446.201 2.044.602.606.392 1.082.966 1.428 1.722.345.756.518 1.652.518 2.688 0 1.036-.173 1.932-.518 2.688-.346.756-.822 1.335-1.428 1.736-.598.392-1.279.588-2.044.588zm0-1.246c.784 0 1.409-.322 1.876-.966.476-.644.714-1.577.714-2.8 0-1.223-.238-2.156-.714-2.8-.467-.644-1.092-.966-1.876-.966-.794 0-1.428.322-1.904.966-.467.644-.7 1.577-.7 2.8 0 1.223.233 2.156.7 2.8.476.644 1.11.966 1.904.966zm9.338 1.246c-.775 0-1.466-.196-2.072-.588-.598-.401-1.069-.98-1.414-1.736-.346-.756-.518-1.652-.518-2.688 0-1.036.172-1.932.518-2.688.345-.756.816-1.33 1.414-1.722.606-.401 1.297-.602 2.072-.602.765 0 1.446.201 2.044.602.606.392 1.082.966 1.428 1.722.345.756.518 1.652.518 2.688 0 1.036-.173 1.932-.518 2.688-.346.756-.822 1.335-1.428 1.736-.598.392-1.279.588-2.044.588zm0-1.246c.784 0 1.409-.322 1.876-.966.476-.644.714-1.577.714-2.8 0-1.223-.238-2.156-.714-2.8-.467-.644-1.092-.966-1.876-.966-.794 0-1.428.322-1.904.966-.467.644-.7 1.577-.7 2.8 0 1.223.233 2.156.7 2.8.476.644 1.11.966 1.904.966zm98.559-4.55c.962.093 1.694.392 2.198.896.504.495.756 1.129.756 1.904 0 .56-.14 1.069-.42 1.526-.28.448-.7.807-1.26 1.078-.55.261-1.227.392-2.03.392-.7 0-1.372-.103-2.016-.308-.644-.215-1.171-.509-1.582-.882l.644-1.106c.336.317.766.574 1.288.77a4.91 4.91 0 001.666.28c.728 0 1.293-.154 1.694-.462.411-.308.616-.733.616-1.274s-.2-.961-.602-1.26c-.401-.299-1.008-.448-1.82-.448h-.784v-.98l2.464-3.024H504.8V385.2h6.468v.952l-2.562 3.164zm8.264 5.796c-.775 0-1.465-.196-2.072-.588-.597-.401-1.069-.98-1.414-1.736s-.518-1.652-.518-2.688c0-1.036.173-1.932.518-2.688.345-.756.817-1.33 1.414-1.722.607-.401 1.297-.602 2.072-.602.765 0 1.447.201 2.044.602.607.392 1.083.966 1.428 1.722s.518 1.652.518 2.688c0 1.036-.173 1.932-.518 2.688-.345.756-.821 1.335-1.428 1.736-.597.392-1.279.588-2.044.588zm0-1.246c.784 0 1.409-.322 1.876-.966.476-.644.714-1.577.714-2.8 0-1.223-.238-2.156-.714-2.8-.467-.644-1.092-.966-1.876-.966-.793 0-1.428.322-1.904.966-.467.644-.7 1.577-.7 2.8 0 1.223.233 2.156.7 2.8.476.644 1.111.966 1.904.966zm13.098 1.246c-.775 0-1.466-.196-2.072-.588-.598-.401-1.069-.98-1.414-1.736-.346-.756-.518-1.652-.518-2.688 0-1.036.172-1.932.518-2.688.345-.756.816-1.33 1.414-1.722.606-.401 1.297-.602 2.072-.602.765 0 1.446.201 2.044.602.606.392 1.082.966 1.428 1.722.345.756.518 1.652.518 2.688 0 1.036-.173 1.932-.518 2.688-.346.756-.822 1.335-1.428 1.736-.598.392-1.279.588-2.044.588zm0-1.246c.784 0 1.409-.322 1.876-.966.476-.644.714-1.577.714-2.8 0-1.223-.238-2.156-.714-2.8-.467-.644-1.092-.966-1.876-.966-.794 0-1.428.322-1.904.966-.467.644-.7 1.577-.7 2.8 0 1.223.233 2.156.7 2.8.476.644 1.11.966 1.904.966zm9.337 1.246c-.774 0-1.465-.196-2.072-.588-.597-.401-1.068-.98-1.414-1.736-.345-.756-.518-1.652-.518-2.688 0-1.036.173-1.932.518-2.688.346-.756.817-1.33 1.414-1.722.607-.401 1.298-.602 2.072-.602.766 0 1.447.201 2.044.602.607.392 1.083.966 1.428 1.722.346.756.518 1.652.518 2.688 0 1.036-.172 1.932-.518 2.688-.345.756-.821 1.335-1.428 1.736-.597.392-1.278.588-2.044.588zm0-1.246c.784 0 1.41-.322 1.876-.966.476-.644.714-1.577.714-2.8 0-1.223-.238-2.156-.714-2.8-.466-.644-1.092-.966-1.876-.966-.793 0-1.428.322-1.904.966-.466.644-.7 1.577-.7 2.8 0 1.223.234 2.156.7 2.8.476.644 1.111.966 1.904.966zm8.331-8.666v9.8h-1.386v-8.582h-2.212V385.2h3.598zm6.03 5.376h3.766v1.162h-3.766v-1.162zm12.031-5.376v9.8h-1.386v-8.582h-2.212V385.2h3.598zm6.148 9.912c-.775 0-1.466-.196-2.072-.588-.598-.401-1.069-.98-1.414-1.736-.346-.756-.518-1.652-.518-2.688 0-1.036.172-1.932.518-2.688.345-.756.816-1.33 1.414-1.722.606-.401 1.297-.602 2.072-.602.765 0 1.446.201 2.044.602.606.392 1.082.966 1.428 1.722.345.756.518 1.652.518 2.688 0 1.036-.173 1.932-.518 2.688-.346.756-.822 1.335-1.428 1.736-.598.392-1.279.588-2.044.588zm0-1.246c.784 0 1.409-.322 1.876-.966.476-.644.714-1.577.714-2.8 0-1.223-.238-2.156-.714-2.8-.467-.644-1.092-.966-1.876-.966-.794 0-1.428.322-1.904.966-.467.644-.7 1.577-.7 2.8 0 1.223.233 2.156.7 2.8.476.644 1.11.966 1.904.966zm9.337 1.246c-.774 0-1.465-.196-2.072-.588-.597-.401-1.068-.98-1.414-1.736-.345-.756-.518-1.652-.518-2.688 0-1.036.173-1.932.518-2.688.346-.756.817-1.33 1.414-1.722.607-.401 1.298-.602 2.072-.602.766 0 1.447.201 2.044.602.607.392 1.083.966 1.428 1.722.346.756.518 1.652.518 2.688 0 1.036-.172 1.932-.518 2.688-.345.756-.821 1.335-1.428 1.736-.597.392-1.278.588-2.044.588zm0-1.246c.784 0 1.41-.322 1.876-.966.476-.644.714-1.577.714-2.8 0-1.223-.238-2.156-.714-2.8-.466-.644-1.092-.966-1.876-.966-.793 0-1.428.322-1.904.966-.466.644-.7 1.577-.7 2.8 0 1.223.234 2.156.7 2.8.476.644 1.111.966 1.904.966zm13.098 1.246c-.775 0-1.465-.196-2.072-.588-.597-.401-1.069-.98-1.414-1.736s-.518-1.652-.518-2.688c0-1.036.173-1.932.518-2.688.345-.756.817-1.33 1.414-1.722.607-.401 1.297-.602 2.072-.602.765 0 1.447.201 2.044.602.607.392 1.083.966 1.428 1.722s.518 1.652.518 2.688c0 1.036-.173 1.932-.518 2.688-.345.756-.821 1.335-1.428 1.736-.597.392-1.279.588-2.044.588zm0-1.246c.784 0 1.409-.322 1.876-.966.476-.644.714-1.577.714-2.8 0-1.223-.238-2.156-.714-2.8-.467-.644-1.092-.966-1.876-.966-.793 0-1.428.322-1.904.966-.467.644-.7 1.577-.7 2.8 0 1.223.233 2.156.7 2.8.476.644 1.111.966 1.904.966zm9.338 1.246c-.775 0-1.465-.196-2.072-.588-.597-.401-1.069-.98-1.414-1.736s-.518-1.652-.518-2.688c0-1.036.173-1.932.518-2.688.345-.756.817-1.33 1.414-1.722.607-.401 1.297-.602 2.072-.602.765 0 1.447.201 2.044.602.607.392 1.083.966 1.428 1.722s.518 1.652.518 2.688c0 1.036-.173 1.932-.518 2.688-.345.756-.821 1.335-1.428 1.736-.597.392-1.279.588-2.044.588zm0-1.246c.784 0 1.409-.322 1.876-.966.476-.644.714-1.577.714-2.8 0-1.223-.238-2.156-.714-2.8-.467-.644-1.092-.966-1.876-.966-.793 0-1.428.322-1.904.966-.467.644-.7 1.577-.7 2.8 0 1.223.233 2.156.7 2.8.476.644 1.111.966 1.904.966zm9.338 1.246c-.775 0-1.465-.196-2.072-.588-.597-.401-1.069-.98-1.414-1.736s-.518-1.652-.518-2.688c0-1.036.173-1.932.518-2.688.345-.756.817-1.33 1.414-1.722.607-.401 1.297-.602 2.072-.602.765 0 1.447.201 2.044.602.607.392 1.083.966 1.428 1.722s.518 1.652.518 2.688c0 1.036-.173 1.932-.518 2.688-.345.756-.821 1.335-1.428 1.736-.597.392-1.279.588-2.044.588zm0-1.246c.784 0 1.409-.322 1.876-.966.476-.644.714-1.577.714-2.8 0-1.223-.238-2.156-.714-2.8-.467-.644-1.092-.966-1.876-.966-.793 0-1.428.322-1.904.966-.467.644-.7 1.577-.7 2.8 0 1.223.233 2.156.7 2.8.476.644 1.111.966 1.904.966zm91.767-8.666v9.8h-1.386v-8.582h-2.212V385.2h3.598zm6.148 9.912c-.775 0-1.465-.196-2.072-.588-.597-.401-1.069-.98-1.414-1.736s-.518-1.652-.518-2.688c0-1.036.173-1.932.518-2.688.345-.756.817-1.33 1.414-1.722.607-.401 1.297-.602 2.072-.602.765 0 1.447.201 2.044.602.607.392 1.083.966 1.428 1.722s.518 1.652.518 2.688c0 1.036-.173 1.932-.518 2.688-.345.756-.821 1.335-1.428 1.736-.597.392-1.279.588-2.044.588zm0-1.246c.784 0 1.409-.322 1.876-.966.476-.644.714-1.577.714-2.8 0-1.223-.238-2.156-.714-2.8-.467-.644-1.092-.966-1.876-.966-.793 0-1.428.322-1.904.966-.467.644-.7 1.577-.7 2.8 0 1.223.233 2.156.7 2.8.476.644 1.111.966 1.904.966zm9.338 1.246c-.775 0-1.466-.196-2.072-.588-.598-.401-1.069-.98-1.414-1.736-.346-.756-.518-1.652-.518-2.688 0-1.036.172-1.932.518-2.688.345-.756.816-1.33 1.414-1.722.606-.401 1.297-.602 2.072-.602.765 0 1.446.201 2.044.602.606.392 1.082.966 1.428 1.722.345.756.518 1.652.518 2.688 0 1.036-.173 1.932-.518 2.688-.346.756-.822 1.335-1.428 1.736-.598.392-1.279.588-2.044.588zm0-1.246c.784 0 1.409-.322 1.876-.966.476-.644.714-1.577.714-2.8 0-1.223-.238-2.156-.714-2.8-.467-.644-1.092-.966-1.876-.966-.794 0-1.428.322-1.904.966-.467.644-.7 1.577-.7 2.8 0 1.223.233 2.156.7 2.8.476.644 1.11.966 1.904.966zm13.097 1.246c-.774 0-1.465-.196-2.072-.588-.597-.401-1.068-.98-1.414-1.736-.345-.756-.518-1.652-.518-2.688 0-1.036.173-1.932.518-2.688.346-.756.817-1.33 1.414-1.722.607-.401 1.298-.602 2.072-.602.766 0 1.447.201 2.044.602.607.392 1.083.966 1.428 1.722.346.756.518 1.652.518 2.688 0 1.036-.172 1.932-.518 2.688-.345.756-.821 1.335-1.428 1.736-.597.392-1.278.588-2.044.588zm0-1.246c.784 0 1.41-.322 1.876-.966.476-.644.714-1.577.714-2.8 0-1.223-.238-2.156-.714-2.8-.466-.644-1.092-.966-1.876-.966-.793 0-1.428.322-1.904.966-.466.644-.7 1.577-.7 2.8 0 1.223.234 2.156.7 2.8.476.644 1.111.966 1.904.966zm9.338 1.246c-.774 0-1.465-.196-2.072-.588-.597-.401-1.068-.98-1.414-1.736-.345-.756-.518-1.652-.518-2.688 0-1.036.173-1.932.518-2.688.346-.756.817-1.33 1.414-1.722.607-.401 1.298-.602 2.072-.602.766 0 1.447.201 2.044.602.607.392 1.083.966 1.428 1.722.346.756.518 1.652.518 2.688 0 1.036-.172 1.932-.518 2.688-.345.756-.821 1.335-1.428 1.736-.597.392-1.278.588-2.044.588zm0-1.246c.784 0 1.41-.322 1.876-.966.476-.644.714-1.577.714-2.8 0-1.223-.238-2.156-.714-2.8-.466-.644-1.092-.966-1.876-.966-.793 0-1.428.322-1.904.966-.466.644-.7 1.577-.7 2.8 0 1.223.234 2.156.7 2.8.476.644 1.111.966 1.904.966zm8.331-8.666v9.8h-1.386v-8.582h-2.212V385.2h3.598zm6.03 5.376h3.766v1.162h-3.766v-1.162zm12.745-1.26c.961.093 1.694.392 2.198.896.504.495.756 1.129.756 1.904 0 .56-.14 1.069-.42 1.526-.28.448-.7.807-1.26 1.078-.551.261-1.228.392-2.03.392-.7 0-1.372-.103-2.016-.308-.644-.215-1.172-.509-1.582-.882l.644-1.106c.336.317.765.574 1.288.77.522.187 1.078.28 1.666.28.728 0 1.292-.154 1.694-.462.41-.308.616-.733.616-1.274s-.201-.961-.602-1.26c-.402-.299-1.008-.448-1.82-.448h-.784v-.98l2.464-3.024h-4.718V385.2h6.468v.952l-2.562 3.164zm8.264 5.796c-.775 0-1.466-.196-2.072-.588-.598-.401-1.069-.98-1.414-1.736-.346-.756-.518-1.652-.518-2.688 0-1.036.172-1.932.518-2.688.345-.756.816-1.33 1.414-1.722.606-.401 1.297-.602 2.072-.602.765 0 1.446.201 2.044.602.606.392 1.082.966 1.428 1.722.345.756.518 1.652.518 2.688 0 1.036-.173 1.932-.518 2.688-.346.756-.822 1.335-1.428 1.736-.598.392-1.279.588-2.044.588zm0-1.246c.784 0 1.409-.322 1.876-.966.476-.644.714-1.577.714-2.8 0-1.223-.238-2.156-.714-2.8-.467-.644-1.092-.966-1.876-.966-.794 0-1.428.322-1.904.966-.467.644-.7 1.577-.7 2.8 0 1.223.233 2.156.7 2.8.476.644 1.11.966 1.904.966zm9.337 1.246c-.774 0-1.465-.196-2.072-.588-.597-.401-1.068-.98-1.414-1.736-.345-.756-.518-1.652-.518-2.688 0-1.036.173-1.932.518-2.688.346-.756.817-1.33 1.414-1.722.607-.401 1.298-.602 2.072-.602.766 0 1.447.201 2.044.602.607.392 1.083.966 1.428 1.722.346.756.518 1.652.518 2.688 0 1.036-.172 1.932-.518 2.688-.345.756-.821 1.335-1.428 1.736-.597.392-1.278.588-2.044.588zm0-1.246c.784 0 1.41-.322 1.876-.966.476-.644.714-1.577.714-2.8 0-1.223-.238-2.156-.714-2.8-.466-.644-1.092-.966-1.876-.966-.793 0-1.428.322-1.904.966-.466.644-.7 1.577-.7 2.8 0 1.223.234 2.156.7 2.8.476.644 1.111.966 1.904.966zm13.098 1.246c-.775 0-1.465-.196-2.072-.588-.597-.401-1.069-.98-1.414-1.736s-.518-1.652-.518-2.688c0-1.036.173-1.932.518-2.688.345-.756.817-1.33 1.414-1.722.607-.401 1.297-.602 2.072-.602.765 0 1.447.201 2.044.602.607.392 1.083.966 1.428 1.722s.518 1.652.518 2.688c0 1.036-.173 1.932-.518 2.688-.345.756-.821 1.335-1.428 1.736-.597.392-1.279.588-2.044.588zm0-1.246c.784 0 1.409-.322 1.876-.966.476-.644.714-1.577.714-2.8 0-1.223-.238-2.156-.714-2.8-.467-.644-1.092-.966-1.876-.966-.793 0-1.428.322-1.904.966-.467.644-.7 1.577-.7 2.8 0 1.223.233 2.156.7 2.8.476.644 1.111.966 1.904.966zm9.338 1.246c-.775 0-1.465-.196-2.072-.588-.597-.401-1.069-.98-1.414-1.736s-.518-1.652-.518-2.688c0-1.036.173-1.932.518-2.688.345-.756.817-1.33 1.414-1.722.607-.401 1.297-.602 2.072-.602.765 0 1.447.201 2.044.602.607.392 1.083.966 1.428 1.722s.518 1.652.518 2.688c0 1.036-.173 1.932-.518 2.688-.345.756-.821 1.335-1.428 1.736-.597.392-1.279.588-2.044.588zm0-1.246c.784 0 1.409-.322 1.876-.966.476-.644.714-1.577.714-2.8 0-1.223-.238-2.156-.714-2.8-.467-.644-1.092-.966-1.876-.966-.793 0-1.428.322-1.904.966-.467.644-.7 1.577-.7 2.8 0 1.223.233 2.156.7 2.8.476.644 1.111.966 1.904.966zm9.338 1.246c-.775 0-1.466-.196-2.072-.588-.598-.401-1.069-.98-1.414-1.736-.346-.756-.518-1.652-.518-2.688 0-1.036.172-1.932.518-2.688.345-.756.816-1.33 1.414-1.722.606-.401 1.297-.602 2.072-.602.765 0 1.446.201 2.044.602.606.392 1.082.966 1.428 1.722.345.756.518 1.652.518 2.688 0 1.036-.173 1.932-.518 2.688-.346.756-.822 1.335-1.428 1.736-.598.392-1.279.588-2.044.588zm0-1.246c.784 0 1.409-.322 1.876-.966.476-.644.714-1.577.714-2.8 0-1.223-.238-2.156-.714-2.8-.467-.644-1.092-.966-1.876-.966-.794 0-1.428.322-1.904.966-.467.644-.7 1.577-.7 2.8 0 1.223.233 2.156.7 2.8.476.644 1.11.966 1.904.966zm80.263-4.55c.962.093 1.694.392 2.198.896.504.495.756 1.129.756 1.904 0 .56-.14 1.069-.42 1.526-.28.448-.7.807-1.26 1.078-.55.261-1.227.392-2.03.392-.7 0-1.372-.103-2.016-.308-.644-.215-1.171-.509-1.582-.882l.644-1.106c.336.317.766.574 1.288.77a4.91 4.91 0 001.666.28c.728 0 1.293-.154 1.694-.462.411-.308.616-.733.616-1.274s-.2-.961-.602-1.26c-.401-.299-1.008-.448-1.82-.448h-.784v-.98l2.464-3.024h-4.718V385.2h6.468v.952l-2.562 3.164zm8.264 5.796c-.774 0-1.465-.196-2.072-.588-.597-.401-1.068-.98-1.414-1.736-.345-.756-.518-1.652-.518-2.688 0-1.036.173-1.932.518-2.688.346-.756.817-1.33 1.414-1.722.607-.401 1.298-.602 2.072-.602.766 0 1.447.201 2.044.602.607.392 1.083.966 1.428 1.722.346.756.518 1.652.518 2.688 0 1.036-.172 1.932-.518 2.688-.345.756-.821 1.335-1.428 1.736-.597.392-1.278.588-2.044.588zm0-1.246c.784 0 1.41-.322 1.876-.966.476-.644.714-1.577.714-2.8 0-1.223-.238-2.156-.714-2.8-.466-.644-1.092-.966-1.876-.966-.793 0-1.428.322-1.904.966-.466.644-.7 1.577-.7 2.8 0 1.223.234 2.156.7 2.8.476.644 1.111.966 1.904.966zm9.338 1.246c-.775 0-1.465-.196-2.072-.588-.597-.401-1.069-.98-1.414-1.736s-.518-1.652-.518-2.688c0-1.036.173-1.932.518-2.688.345-.756.817-1.33 1.414-1.722.607-.401 1.297-.602 2.072-.602.765 0 1.447.201 2.044.602.607.392 1.083.966 1.428 1.722s.518 1.652.518 2.688c0 1.036-.173 1.932-.518 2.688-.345.756-.821 1.335-1.428 1.736-.597.392-1.279.588-2.044.588zm0-1.246c.784 0 1.409-.322 1.876-.966.476-.644.714-1.577.714-2.8 0-1.223-.238-2.156-.714-2.8-.467-.644-1.092-.966-1.876-.966-.793 0-1.428.322-1.904.966-.467.644-.7 1.577-.7 2.8 0 1.223.233 2.156.7 2.8.476.644 1.111.966 1.904.966zm13.098 1.246c-.775 0-1.466-.196-2.072-.588-.598-.401-1.069-.98-1.414-1.736-.346-.756-.518-1.652-.518-2.688 0-1.036.172-1.932.518-2.688.345-.756.816-1.33 1.414-1.722.606-.401 1.297-.602 2.072-.602.765 0 1.446.201 2.044.602.606.392 1.082.966 1.428 1.722.345.756.518 1.652.518 2.688 0 1.036-.173 1.932-.518 2.688-.346.756-.822 1.335-1.428 1.736-.598.392-1.279.588-2.044.588zm0-1.246c.784 0 1.409-.322 1.876-.966.476-.644.714-1.577.714-2.8 0-1.223-.238-2.156-.714-2.8-.467-.644-1.092-.966-1.876-.966-.794 0-1.428.322-1.904.966-.467.644-.7 1.577-.7 2.8 0 1.223.233 2.156.7 2.8.476.644 1.11.966 1.904.966zm9.338 1.246c-.775 0-1.466-.196-2.072-.588-.598-.401-1.069-.98-1.414-1.736-.346-.756-.518-1.652-.518-2.688 0-1.036.172-1.932.518-2.688.345-.756.816-1.33 1.414-1.722.606-.401 1.297-.602 2.072-.602.765 0 1.446.201 2.044.602.606.392 1.082.966 1.428 1.722.345.756.518 1.652.518 2.688 0 1.036-.173 1.932-.518 2.688-.346.756-.822 1.335-1.428 1.736-.598.392-1.279.588-2.044.588zm0-1.246c.784 0 1.409-.322 1.876-.966.476-.644.714-1.577.714-2.8 0-1.223-.238-2.156-.714-2.8-.467-.644-1.092-.966-1.876-.966-.794 0-1.428.322-1.904.966-.467.644-.7 1.577-.7 2.8 0 1.223.233 2.156.7 2.8.476.644 1.11.966 1.904.966zm8.33-8.666v9.8h-1.386v-8.582h-2.212V385.2h3.598zm6.03 5.376h3.766v1.162h-3.766v-1.162zm12.031-5.376v9.8h-1.386v-8.582h-2.212V385.2h3.598zm9.907 9.912c-.774 0-1.465-.196-2.072-.588-.597-.401-1.068-.98-1.414-1.736-.345-.756-.518-1.652-.518-2.688 0-1.036.173-1.932.518-2.688.346-.756.817-1.33 1.414-1.722.607-.401 1.298-.602 2.072-.602.766 0 1.447.201 2.044.602.607.392 1.083.966 1.428 1.722.346.756.518 1.652.518 2.688 0 1.036-.172 1.932-.518 2.688-.345.756-.821 1.335-1.428 1.736-.597.392-1.278.588-2.044.588zm0-1.246c.784 0 1.41-.322 1.876-.966.476-.644.714-1.577.714-2.8 0-1.223-.238-2.156-.714-2.8-.466-.644-1.092-.966-1.876-.966-.793 0-1.428.322-1.904.966-.466.644-.7 1.577-.7 2.8 0 1.223.234 2.156.7 2.8.476.644 1.111.966 1.904.966zm9.338 1.246c-.774 0-1.465-.196-2.072-.588-.597-.401-1.068-.98-1.414-1.736-.345-.756-.518-1.652-.518-2.688 0-1.036.173-1.932.518-2.688.346-.756.817-1.33 1.414-1.722.607-.401 1.298-.602 2.072-.602.766 0 1.447.201 2.044.602.607.392 1.083.966 1.428 1.722.346.756.518 1.652.518 2.688 0 1.036-.172 1.932-.518 2.688-.345.756-.821 1.335-1.428 1.736-.597.392-1.278.588-2.044.588zm0-1.246c.784 0 1.41-.322 1.876-.966.476-.644.714-1.577.714-2.8 0-1.223-.238-2.156-.714-2.8-.466-.644-1.092-.966-1.876-.966-.793 0-1.428.322-1.904.966-.466.644-.7 1.577-.7 2.8 0 1.223.234 2.156.7 2.8.476.644 1.111.966 1.904.966zm9.338 1.246c-.774 0-1.465-.196-2.072-.588-.597-.401-1.068-.98-1.414-1.736-.345-.756-.518-1.652-.518-2.688 0-1.036.173-1.932.518-2.688.346-.756.817-1.33 1.414-1.722.607-.401 1.298-.602 2.072-.602.766 0 1.447.201 2.044.602.607.392 1.083.966 1.428 1.722.346.756.518 1.652.518 2.688 0 1.036-.172 1.932-.518 2.688-.345.756-.821 1.335-1.428 1.736-.597.392-1.278.588-2.044.588zm0-1.246c.784 0 1.41-.322 1.876-.966.476-.644.714-1.577.714-2.8 0-1.223-.238-2.156-.714-2.8-.466-.644-1.092-.966-1.876-.966-.793 0-1.428.322-1.904.966-.466.644-.7 1.577-.7 2.8 0 1.223.234 2.156.7 2.8.476.644 1.111.966 1.904.966zm13.1 1.246c-.78 0-1.47-.196-2.07-.588-.6-.401-1.07-.98-1.42-1.736-.34-.756-.52-1.652-.52-2.688 0-1.036.18-1.932.52-2.688.35-.756.82-1.33 1.42-1.722.6-.401 1.29-.602 2.07-.602.76 0 1.44.201 2.04.602.61.392 1.08.966 1.43 1.722.35.756.52 1.652.52 2.688 0 1.036-.17 1.932-.52 2.688-.35.756-.82 1.335-1.43 1.736-.6.392-1.28.588-2.04.588zm0-1.246c.78 0 1.41-.322 1.87-.966.48-.644.72-1.577.72-2.8 0-1.223-.24-2.156-.72-2.8-.46-.644-1.09-.966-1.87-.966-.8 0-1.43.322-1.91.966-.46.644-.7 1.577-.7 2.8 0 1.223.24 2.156.7 2.8.48.644 1.11.966 1.91.966zm9.34 1.246c-.78 0-1.47-.196-2.08-.588-.59-.401-1.06-.98-1.41-1.736-.35-.756-.52-1.652-.52-2.688 0-1.036.17-1.932.52-2.688.35-.756.82-1.33 1.41-1.722.61-.401 1.3-.602 2.08-.602.76 0 1.44.201 2.04.602.61.392 1.08.966 1.43 1.722.34.756.52 1.652.52 2.688 0 1.036-.18 1.932-.52 2.688-.35.756-.82 1.335-1.43 1.736-.6.392-1.28.588-2.04.588zm0-1.246c.78 0 1.41-.322 1.87-.966.48-.644.72-1.577.72-2.8 0-1.223-.24-2.156-.72-2.8-.46-.644-1.09-.966-1.87-.966-.8 0-1.43.322-1.91.966-.46.644-.7 1.577-.7 2.8 0 1.223.24 2.156.7 2.8.48.644 1.11.966 1.91.966zm9.33 1.246c-.77 0-1.46-.196-2.07-.588-.6-.401-1.07-.98-1.41-1.736-.35-.756-.52-1.652-.52-2.688 0-1.036.17-1.932.52-2.688.34-.756.81-1.33 1.41-1.722.61-.401 1.3-.602 2.07-.602.77 0 1.45.201 2.05.602.6.392 1.08.966 1.43 1.722.34.756.51 1.652.51 2.688 0 1.036-.17 1.932-.51 2.688-.35.756-.83 1.335-1.43 1.736-.6.392-1.28.588-2.05.588zm0-1.246c.79 0 1.41-.322 1.88-.966.48-.644.71-1.577.71-2.8 0-1.223-.23-2.156-.71-2.8-.47-.644-1.09-.966-1.88-.966-.79 0-1.42.322-1.9.966-.47.644-.7 1.577-.7 2.8 0 1.223.23 2.156.7 2.8.48.644 1.11.966 1.9.966z" fill="#fff"/><g filter="url(#filter5_d_4709_10)"><rect x="105" y="36" width="10" height="10" rx="5" fill="url(#paint0_linear_4709_10)"/></g><rect x="105" y="64" width="10" height="10" rx="5" fill="url(#paint1_linear_4709_10)"/><path d="M136.188 35.6h6.54v1.284h-5.004v2.064h2.484c1.008 0 1.772.212 2.292.636.528.416.792 1.02.792 1.812 0 .832-.288 1.476-.864 1.932-.576.448-1.396.672-2.46.672h-3.78v-8.4zm3.696 7.2c.6 0 1.056-.116 1.368-.348.312-.232.468-.568.468-1.008 0-.864-.612-1.296-1.836-1.296h-2.16V42.8h2.16zm11.416-.108V44H145v-8.4h6.132v1.308h-4.572v2.184h4.056v1.284h-4.056v2.316h4.74zm6.155-3.072c.504.16.896.42 1.176.78.288.352.432.768.432 1.248 0 .504-.164.944-.492 1.32-.328.368-.768.652-1.32.852-.544.2-1.14.3-1.788.3-.56 0-1.124-.076-1.692-.228a5.737 5.737 0 01-1.56-.708l.504-1.14c.368.248.776.44 1.224.576.448.128.892.192 1.332.192.632 0 1.156-.124 1.572-.372.424-.248.636-.588.636-1.02a.933.933 0 00-.456-.84c-.304-.192-.724-.288-1.26-.288h-1.956v-1.224h1.836c.464 0 .828-.096 1.092-.288a.915.915 0 00.396-.78c0-.392-.18-.696-.54-.912-.352-.216-.804-.324-1.356-.324a4.31 4.31 0 00-1.164.168c-.4.104-.776.26-1.128.468l-.492-1.26a5.539 5.539 0 011.368-.516c.488-.12.972-.18 1.452-.18a4.92 4.92 0 011.716.288c.528.192.948.468 1.26.828.312.352.468.768.468 1.248 0 .416-.112.78-.336 1.092a2.148 2.148 0 01-.924.72zm13.906-4.02l-3.648 6.78c-.32.6-.704 1.052-1.152 1.356-.44.296-.92.444-1.44.444-.416 0-.828-.088-1.236-.264l.384-1.224c.328.104.6.156.816.156.504 0 .92-.26 1.248-.78l.132-.204-3.348-6.264h1.668l2.484 4.932 2.556-4.932h1.536zm4.855 8.52c-.848 0-1.616-.184-2.304-.552a4.212 4.212 0 01-1.608-1.548c-.384-.656-.576-1.396-.576-2.22 0-.824.196-1.564.588-2.22a4.124 4.124 0 011.608-1.536c.688-.376 1.456-.564 2.304-.564.688 0 1.316.12 1.884.36.568.24 1.048.588 1.44 1.044l-1.008.948c-.608-.656-1.356-.984-2.244-.984-.576 0-1.092.128-1.548.384a2.682 2.682 0 00-1.068 1.044 3.017 3.017 0 00-.384 1.524c0 .568.128 1.076.384 1.524.256.448.612.8 1.068 1.056.456.248.972.372 1.548.372.888 0 1.636-.332 2.244-.996l1.008.96a3.823 3.823 0 01-1.452 1.044c-.568.24-1.196.36-1.884.36zm7.88-3.66h-1.56V44H181v-8.4h1.536v3.516h1.608l2.412-3.516h1.656l-2.868 4.068L188.32 44h-1.764l-2.46-3.54zm9.148 3.66c-.856 0-1.628-.184-2.316-.552a4.189 4.189 0 01-1.62-1.548 4.285 4.285 0 01-.588-2.22c0-.816.196-1.552.588-2.208a4.077 4.077 0 011.62-1.548c.688-.376 1.46-.564 2.316-.564.856 0 1.628.188 2.316.564.688.368 1.228.88 1.62 1.536.392.656.588 1.396.588 2.22 0 .824-.196 1.564-.588 2.22a4.189 4.189 0 01-1.62 1.548c-.688.368-1.46.552-2.316.552zm0-1.368c.56 0 1.064-.124 1.512-.372.448-.256.8-.608 1.056-1.056a3.06 3.06 0 00.384-1.524c0-.56-.128-1.064-.384-1.512a2.681 2.681 0 00-1.056-1.056 2.993 2.993 0 00-1.512-.384c-.56 0-1.064.128-1.512.384-.448.248-.8.6-1.056 1.056a2.993 2.993 0 00-.384 1.512c0 .56.128 1.068.384 1.524.256.448.608.8 1.056 1.056.448.248.952.372 1.512.372zm9.704-7.152c.728 0 1.36.12 1.896.36.544.24.96.584 1.248 1.032.288.448.432.98.432 1.596 0 .608-.144 1.14-.432 1.596-.288.448-.704.792-1.248 1.032-.536.24-1.168.36-1.896.36h-1.896V44h-1.56v-8.4h3.456zm-.072 4.656c.68 0 1.196-.144 1.548-.432.352-.288.528-.7.528-1.236s-.176-.948-.528-1.236c-.352-.288-.868-.432-1.548-.432h-1.824v3.336h1.824zm5.136-4.656h1.536v5.964l4.512-5.964h1.452V44h-1.536v-5.952L209.464 44h-1.452v-8.4zm15.951 1.32h-2.784V44h-1.548v-7.08h-2.772V35.6h7.104v1.32zm7.646 5.772V44h-6.3v-8.4h6.132v1.308h-4.572v2.184h4.056v1.284h-4.056v2.316h4.74zm8.915-7.092V44h-1.536v-7.08h-3.312l-.072 2.1c-.04 1.176-.136 2.132-.288 2.868-.152.728-.396 1.284-.732 1.668-.336.376-.8.564-1.392.564a4.18 4.18 0 01-.852-.12l.108-1.356c.104.032.224.048.36.048.488 0 .832-.288 1.032-.864.208-.584.336-1.5.384-2.748l.12-3.48h6.18zm8.783 0V44h-1.536v-2.34h-2.244l-1.56 2.34h-1.644l1.8-2.592c-.584-.216-1.036-.556-1.356-1.02-.312-.472-.468-1.04-.468-1.704 0-.64.144-1.192.432-1.656a2.73 2.73 0 011.224-1.056c.528-.248 1.148-.372 1.86-.372h3.492zm-3.444 1.32c-.64 0-1.132.148-1.476.444-.336.296-.504.728-.504 1.296 0 .552.164.98.492 1.284.328.296.804.444 1.428.444h1.968V36.92h-1.908z" fill="#D8A834"/><path d="M140.04 72.12c-.848 0-1.616-.184-2.304-.552a4.212 4.212 0 01-1.608-1.548c-.384-.656-.576-1.396-.576-2.22 0-.824.196-1.564.588-2.22a4.124 4.124 0 011.608-1.536c.688-.376 1.456-.564 2.304-.564.688 0 1.316.12 1.884.36.568.24 1.048.588 1.44 1.044l-1.008.948c-.608-.656-1.356-.984-2.244-.984-.576 0-1.092.128-1.548.384a2.682 2.682 0 00-1.068 1.044 3.017 3.017 0 00-.384 1.524c0 .568.128 1.076.384 1.524.256.448.612.8 1.068 1.056.456.248.972.372 1.548.372.888 0 1.636-.332 2.244-.996l1.008.96a3.823 3.823 0 01-1.452 1.044c-.568.24-1.196.36-1.884.36zm15.313-8.52l-3.648 6.78c-.32.6-.704 1.052-1.152 1.356-.44.296-.92.444-1.44.444-.416 0-.828-.088-1.236-.264l.384-1.224c.328.104.6.156.816.156.504 0 .92-.26 1.248-.78l.132-.204-3.348-6.264h1.668l2.484 4.932 2.556-4.932h1.536zm4.855 8.52c-.848 0-1.616-.184-2.304-.552a4.212 4.212 0 01-1.608-1.548c-.384-.656-.576-1.396-.576-2.22 0-.824.196-1.564.588-2.22a4.124 4.124 0 011.608-1.536c.688-.376 1.456-.564 2.304-.564.688 0 1.316.12 1.884.36.568.24 1.048.588 1.44 1.044l-1.008.948c-.608-.656-1.356-.984-2.244-.984-.576 0-1.092.128-1.548.384a2.682 2.682 0 00-1.068 1.044 3.017 3.017 0 00-.384 1.524c0 .568.128 1.076.384 1.524.256.448.612.8 1.068 1.056.456.248.972.372 1.548.372.888 0 1.636-.332 2.244-.996l1.008.96a3.823 3.823 0 01-1.452 1.044c-.568.24-1.196.36-1.884.36zm7.88-3.66h-1.56V72h-1.536v-8.4h1.536v3.516h1.608l2.412-3.516h1.656l-2.868 4.068L172.312 72h-1.764l-2.46-3.54zm9.148 3.66c-.856 0-1.628-.184-2.316-.552a4.189 4.189 0 01-1.62-1.548 4.285 4.285 0 01-.588-2.22c0-.816.196-1.552.588-2.208a4.077 4.077 0 011.62-1.548c.688-.376 1.46-.564 2.316-.564.856 0 1.628.188 2.316.564.688.368 1.228.88 1.62 1.536.392.656.588 1.396.588 2.22 0 .824-.196 1.564-.588 2.22a4.189 4.189 0 01-1.62 1.548c-.688.368-1.46.552-2.316.552zm0-1.368c.56 0 1.064-.124 1.512-.372.448-.256.8-.608 1.056-1.056a3.06 3.06 0 00.384-1.524c0-.56-.128-1.064-.384-1.512a2.681 2.681 0 00-1.056-1.056 2.993 2.993 0 00-1.512-.384c-.56 0-1.064.128-1.512.384-.448.248-.8.6-1.056 1.056a2.993 2.993 0 00-.384 1.512c0 .56.128 1.068.384 1.524.256.448.608.8 1.056 1.056.448.248.952.372 1.512.372zm9.705-7.152c.728 0 1.36.12 1.896.36.544.24.96.584 1.248 1.032.288.448.432.98.432 1.596 0 .608-.144 1.14-.432 1.596-.288.448-.704.792-1.248 1.032-.536.24-1.168.36-1.896.36h-1.896V72h-1.56v-8.4h3.456zm-.072 4.656c.68 0 1.196-.144 1.548-.432.352-.288.528-.7.528-1.236s-.176-.948-.528-1.236c-.352-.288-.868-.432-1.548-.432h-1.824v3.336h1.824zm5.135-4.656h1.536v5.964l4.512-5.964h1.452V72h-1.536v-5.952L193.456 72h-1.452v-8.4zm15.952 1.32h-2.784V72h-1.548v-7.08h-2.772V63.6h7.104v1.32zm7.645 5.772V72h-6.3v-8.4h6.132v1.308h-4.572v2.184h4.056v1.284h-4.056v2.316h4.74zm8.915-7.092V72h-1.536v-7.08h-3.312l-.072 2.1c-.04 1.176-.136 2.132-.288 2.868-.152.728-.396 1.284-.732 1.668-.336.376-.8.564-1.392.564a4.18 4.18 0 01-.852-.12l.108-1.356c.104.032.224.048.36.048.488 0 .832-.288 1.032-.864.208-.584.336-1.5.384-2.748l.12-3.48h6.18zm8.663 7.092V72h-6.3v-8.4h6.132v1.308h-4.572v2.184h4.056v1.284h-4.056v2.316h4.74zM242.634 72l-.012-5.568-2.76 4.608h-.696l-2.76-4.536V72h-1.476v-8.4h1.284l3.324 5.556 3.288-5.556h1.272l.024 8.4h-1.488z" fill="#7EE8A0"/><defs><filter id="filter0_f_4709_10" x="0" y="226" width="319" height="240" filterUnits="userSpaceOnUse" color-interpolation-filters="sRGB"><feFlood flood-opacity="0" result="BackgroundImageFix"/><feBlend in="SourceGraphic" in2="BackgroundImageFix" result="shape"/><feGaussianBlur stdDeviation="40" result="effect1_foregroundBlur_4709_10"/></filter><filter id="filter1_f_4709_10" x="203" y="226" width="319" height="240" filterUnits="userSpaceOnUse" color-interpolation-filters="sRGB"><feFlood flood-opacity="0" result="BackgroundImageFix"/><feBlend in="SourceGraphic" in2="BackgroundImageFix" result="shape"/><feGaussianBlur stdDeviation="40" result="effect1_foregroundBlur_4709_10"/></filter><filter id="filter2_f_4709_10" x="401" y="226" width="319" height="240" filterUnits="userSpaceOnUse" color-interpolation-filters="sRGB"><feFlood flood-opacity="0" result="BackgroundImageFix"/><feBlend in="SourceGraphic" in2="BackgroundImageFix" result="shape"/><feGaussianBlur stdDeviation="40" result="effect1_foregroundBlur_4709_10"/></filter><filter id="filter3_f_4709_10" x="599" y="226" width="319" height="240" filterUnits="userSpaceOnUse" color-interpolation-filters="sRGB"><feFlood flood-opacity="0" result="BackgroundImageFix"/><feBlend in="SourceGraphic" in2="BackgroundImageFix" result="shape"/><feGaussianBlur stdDeviation="40" result="effect1_foregroundBlur_4709_10"/></filter><filter id="filter4_f_4709_10" x="803" y="226" width="319" height="240" filterUnits="userSpaceOnUse" color-interpolation-filters="sRGB"><feFlood flood-opacity="0" result="BackgroundImageFix"/><feBlend in="SourceGraphic" in2="BackgroundImageFix" result="shape"/><feGaussianBlur stdDeviation="40" result="effect1_foregroundBlur_4709_10"/></filter><filter id="filter5_d_4709_10" x="61" y="6" width="98" height="98" filterUnits="userSpaceOnUse" color-interpolation-filters="sRGB"><feFlood flood-opacity="0" result="BackgroundImageFix"/><feColorMatrix in="SourceAlpha" values="0 0 0 0 0 0 0 0 0 0 0 0 0 0 0 0 0 0 127 0" result="hardAlpha"/><feOffset dy="14"/><feGaussianBlur stdDeviation="22"/><feComposite in2="hardAlpha" operator="out"/><feColorMatrix values="0 0 0 0 0.862745 0 0 0 0 0.596078 0 0 0 0 0.223529 0 0 0 0.6 0"/><feBlend in2="BackgroundImageFix" result="effect1_dropShadow_4709_10"/><feBlend in="SourceGraphic" in2="effect1_dropShadow_4709_10" result="shape"/></filter><linearGradient id="paint0_linear_4709_10" x1="103.448" y1="34.621" x2="113.966" y2="46.862" gradientUnits="userSpaceOnUse"><stop stop-color="#BBC423"/><stop offset="1" stop-color="#E99A3D"/></linearGradient><linearGradient id="paint1_linear_4709_10" x1="107.356" y1="64" x2="115.798" y2="66.35" gradientUnits="userSpaceOnUse"><stop stop-color="#E2F685"/><stop offset="1" stop-color="#8AF9AD"/></linearGradient></defs></svg>