<svg width="28" height="26" fill="none" xmlns="http://www.w3.org/2000/svg"><path d="M20.638 13.613l-8.706 8.666a.87.87 0 01-1.23 0 .863.863 0 010-1.225l7.219-7.187H.87A.869.869 0 010 13c0-.479.39-.867.87-.867h17.05l-7.219-7.187a.863.863 0 010-1.225.873.873 0 011.231 0l8.706 8.666c.34.339.34.887 0 1.226zm7.22 7.187V5.2c0-2.867-2.344-5.2-5.224-5.2H16.54c-.48 0-.87.388-.87.867 0 .478.39.866.87.866h6.094A3.479 3.479 0 0126.116 5.2v15.6a3.479 3.479 0 01-3.482 3.467H16.54c-.48 0-.87.388-.87.866 0 .479.39.867.87.867h6.094c2.88 0 5.223-2.333 5.223-5.2z" fill="#B4F299"/></svg>