<svg width="176" height="167" fill="none" xmlns="http://www.w3.org/2000/svg"><g filter="url(#filter0_d_21_810)"><path d="M106.209 49.92c1.913-1.358 3.522-3.053 4.834-5.005v-.002a20.153 20.153 0 01-5.557 1.523 9.591 9.591 0 004.243-5.33 19.297 19.297 0 01-6.115 2.335 9.66 9.66 0 00-7.045-3.052c-5.34 0-9.638 4.333-9.638 9.645 0 .765.065 1.5.224 2.2-8.017-.392-15.113-4.234-19.88-10.09a9.726 9.726 0 00-1.32 4.876c0 3.34 1.718 6.3 4.284 8.015-1.55-.03-3.07-.48-4.357-1.188v.106c0 4.686 3.342 8.58 7.727 9.477a9.59 9.59 0 01-2.53.317c-.616 0-1.24-.035-1.824-.164 1.249 3.818 4.797 6.627 9.01 6.719a19.386 19.386 0 01-11.958 4.112c-.79 0-1.548-.035-2.307-.131 4.273 2.754 9.334 4.328 14.795 4.328 17.02 0 28.112-14.2 27.414-28.69z" fill="url(#paint0_linear_21_810)"/></g><defs><linearGradient id="paint0_linear_21_810" x1="75.083" y1="40.389" x2="113.378" y2="53.51" gradientUnits="userSpaceOnUse"><stop stop-color="#E2F685"/><stop offset="1" stop-color="#8AF9AD"/></linearGradient><filter id="filter0_d_21_810" x="0" y=".389" width="175.043" height="166.222" filterUnits="userSpaceOnUse" color-interpolation-filters="sRGB"><feFlood flood-opacity="0" result="BackgroundImageFix"/><feColorMatrix in="SourceAlpha" values="0 0 0 0 0 0 0 0 0 0 0 0 0 0 0 0 0 0 127 0" result="hardAlpha"/><feOffset dy="24"/><feGaussianBlur stdDeviation="32"/><feComposite in2="hardAlpha" operator="out"/><feColorMatrix values="0 0 0 0 0.541176 0 0 0 0 0.976471 0 0 0 0 0.678431 0 0 0 0.3 0"/><feBlend in2="BackgroundImageFix" result="effect1_dropShadow_21_810"/><feBlend in="SourceGraphic" in2="effect1_dropShadow_21_810" result="shape"/></filter></defs></svg>