<svg width="178" height="163" fill="none" xmlns="http://www.w3.org/2000/svg"><g filter="url(#filter0_d_21_814)"><path d="M112.97 45.477a6.263 6.263 0 00-4.407-4.407C104.65 40 88.999 40 88.999 40s-15.65 0-19.563 1.03c-2.1.576-3.83 2.305-4.406 4.447C64 49.388 64 57.5 64 57.5s0 8.153 1.03 12.023a6.264 6.264 0 004.407 4.406C73.39 75 89 75 89 75s15.65 0 19.563-1.03a6.262 6.262 0 004.407-4.406C114 65.653 114 57.541 114 57.541s.041-8.153-1.03-12.064zM84.016 64.994V50.006L97.031 57.5l-13.015 7.494z" fill="url(#paint0_linear_21_814)"/></g><defs><linearGradient id="paint0_linear_21_814" x1="75.78" y1="40" x2="115.049" y2="55.618" gradientUnits="userSpaceOnUse"><stop stop-color="#E2F685"/><stop offset="1" stop-color="#8AF9AD"/></linearGradient><filter id="filter0_d_21_814" x="0" y="0" width="178" height="163" filterUnits="userSpaceOnUse" color-interpolation-filters="sRGB"><feFlood flood-opacity="0" result="BackgroundImageFix"/><feColorMatrix in="SourceAlpha" values="0 0 0 0 0 0 0 0 0 0 0 0 0 0 0 0 0 0 127 0" result="hardAlpha"/><feOffset dy="24"/><feGaussianBlur stdDeviation="32"/><feComposite in2="hardAlpha" operator="out"/><feColorMatrix values="0 0 0 0 0.541176 0 0 0 0 0.976471 0 0 0 0 0.678431 0 0 0 0.3 0"/><feBlend in2="BackgroundImageFix" result="effect1_dropShadow_21_814"/><feBlend in="SourceGraphic" in2="effect1_dropShadow_21_814" result="shape"/></filter></defs></svg>