<svg width="177" height="166" fill="none" xmlns="http://www.w3.org/2000/svg"><g filter="url(#filter0_d_21_831)"><path d="M109.09 44.466l3.91-3.664V40H99.456l-9.653 23.536L78.82 40h-14.2v.802l4.567 5.386c.445.398.678.98.618 1.566V68.92a2.382 2.382 0 01-.659 2.1L64 77.128v.792h14.588v-.802l-5.145-6.098a2.457 2.457 0 01-.709-2.1V50.612L85.54 77.93h1.488l11.01-27.318v21.762c0 .574 0 .692-.383 1.068l-3.961 3.754V78h19.216v-.802l-3.818-3.662a1.102 1.102 0 01-.437-1.068V45.534c-.071-.406.1-.822.435-1.068z" fill="url(#paint0_linear_21_831)"/></g><defs><linearGradient id="paint0_linear_21_831" x1="75.544" y1="40" x2="115.027" y2="54.174" gradientUnits="userSpaceOnUse"><stop stop-color="#E2F685"/><stop offset="1" stop-color="#8AF9AD"/></linearGradient><filter id="filter0_d_21_831" x="0" y="0" width="177" height="166" filterUnits="userSpaceOnUse" color-interpolation-filters="sRGB"><feFlood flood-opacity="0" result="BackgroundImageFix"/><feColorMatrix in="SourceAlpha" values="0 0 0 0 0 0 0 0 0 0 0 0 0 0 0 0 0 0 127 0" result="hardAlpha"/><feOffset dy="24"/><feGaussianBlur stdDeviation="32"/><feComposite in2="hardAlpha" operator="out"/><feColorMatrix values="0 0 0 0 0.541176 0 0 0 0 0.976471 0 0 0 0 0.678431 0 0 0 0.3 0"/><feBlend in2="BackgroundImageFix" result="effect1_dropShadow_21_831"/><feBlend in="SourceGraphic" in2="effect1_dropShadow_21_831" result="shape"/></filter></defs></svg>