<svg width="174" height="167" fill="none" xmlns="http://www.w3.org/2000/svg"><g filter="url(#filter0_d_21_815)"><path d="M81.997 65.58l-.757 10.67c1.085 0 1.555-.466 2.119-1.026l5.09-4.864 10.545 7.723c1.934 1.078 3.296.51 3.818-1.78l6.922-32.434.002-.002c.613-2.86-1.034-3.977-2.918-3.276L66.129 56.169c-2.777 1.078-2.735 2.626-.472 3.328l10.402 3.235 24.162-15.119c1.138-.753 2.171-.336 1.321.417L81.997 65.58z" fill="url(#paint0_linear_21_815)"/></g><defs><linearGradient id="paint0_linear_21_815" x1="74.806" y1="40.389" x2="112.337" y2="52.926" gradientUnits="userSpaceOnUse"><stop stop-color="#E2F685"/><stop offset="1" stop-color="#8AF9AD"/></linearGradient><filter id="filter0_d_21_815" x="0" y=".389" width="173.865" height="166.222" filterUnits="userSpaceOnUse" color-interpolation-filters="sRGB"><feFlood flood-opacity="0" result="BackgroundImageFix"/><feColorMatrix in="SourceAlpha" values="0 0 0 0 0 0 0 0 0 0 0 0 0 0 0 0 0 0 127 0" result="hardAlpha"/><feOffset dy="24"/><feGaussianBlur stdDeviation="32"/><feComposite in2="hardAlpha" operator="out"/><feColorMatrix values="0 0 0 0 0.541176 0 0 0 0 0.976471 0 0 0 0 0.678431 0 0 0 0.3 0"/><feBlend in2="BackgroundImageFix" result="effect1_dropShadow_21_815"/><feBlend in="SourceGraphic" in2="effect1_dropShadow_21_815" result="shape"/></filter></defs></svg>