<svg width="189" height="133" fill="none" xmlns="http://www.w3.org/2000/svg"><g filter="url(#filter0_d_4703_2)"><path d="M66.09 55.418L44 33.818v43.528l22.09-21.928z" fill="#B4F299"/><path d="M75.09 63.273L45.146 33l44.837 23.236-14.891 7.037z" fill="#93CB7B"/><path d="M66.746 56.4L44.982 78l29.29-14.236-7.526-7.364z" fill="#B4F299"/></g><path d="M121.98 41.08c1.333 0 2.407.4 3.22 1.2.827.8 1.24 1.987 1.24 3.56V52h-3.12v-5.68c0-.853-.187-1.487-.56-1.9-.373-.427-.913-.64-1.62-.64-.787 0-1.413.247-1.88.74-.467.48-.7 1.2-.7 2.16V52h-3.12V41.24h2.98v1.26a4.04 4.04 0 011.54-1.04 5.242 5.242 0 012.02-.38zm7.288.16h3.12V52h-3.12V41.24zm1.56-1.5c-.573 0-1.04-.167-1.4-.5a1.622 1.622 0 01-.54-1.24c0-.493.18-.907.54-1.24.36-.333.827-.5 1.4-.5s1.04.16 1.4.48c.36.32.54.72.54 1.2 0 .52-.18.953-.54 1.3-.36.333-.827.5-1.4.5zm18.236 1.34c1.346 0 2.413.4 3.2 1.2.8.787 1.2 1.973 1.2 3.56V52h-3.12v-5.68c0-.853-.18-1.487-.54-1.9-.347-.427-.847-.64-1.5-.64-.734 0-1.314.24-1.74.72-.427.467-.64 1.167-.64 2.1V52h-3.12v-5.68c0-1.693-.68-2.54-2.04-2.54-.72 0-1.294.24-1.72.72-.427.467-.64 1.167-.64 2.1V52h-3.12V41.24h2.98v1.24c.4-.453.886-.8 1.46-1.04a5.018 5.018 0 011.92-.36c.76 0 1.446.153 2.06.46a3.583 3.583 0 011.48 1.3 4.43 4.43 0 011.66-1.3c.68-.307 1.42-.46 2.22-.46zm13.556 0c1 0 1.907.233 2.72.7a4.845 4.845 0 011.94 1.94c.467.827.7 1.793.7 2.9s-.233 2.08-.7 2.92a5.017 5.017 0 01-1.94 1.94c-.813.453-1.72.68-2.72.68-1.48 0-2.606-.467-3.38-1.4V52h-2.98V37.16h3.12v5.22c.787-.867 1.867-1.3 3.24-1.3zm-.54 8.52c.8 0 1.454-.267 1.96-.8.52-.547.78-1.273.78-2.18 0-.907-.26-1.627-.78-2.16-.506-.547-1.16-.82-1.96-.82s-1.46.273-1.98.82c-.506.533-.76 1.253-.76 2.16 0 .907.254 1.633.76 2.18.52.533 1.18.8 1.98.8zm11.849 2.56c-1.213 0-2.16-.32-2.84-.96-.68-.653-1.02-1.573-1.02-2.76V37.16h3.12v11.1c0 .453.113.807.34 1.06.24.24.573.36 1 .36.16 0 .32-.02.48-.06a1.53 1.53 0 00.4-.14l.14 2.42a5.09 5.09 0 01-1.62.26zm8.376-2.5c.56 0 1.054-.08 1.48-.24.44-.173.847-.44 1.22-.8l1.66 1.8c-1.013 1.16-2.493 1.74-4.44 1.74-1.213 0-2.286-.233-3.22-.7-.933-.48-1.653-1.14-2.16-1.98-.506-.84-.76-1.793-.76-2.86 0-1.053.247-2 .74-2.84a5.258 5.258 0 012.06-1.98c.88-.48 1.867-.72 2.96-.72 1.027 0 1.96.22 2.8.66a4.846 4.846 0 012 1.88c.507.813.76 1.78.76 2.9l-7.96 1.54c.227.533.58.933 1.06 1.2.494.267 1.094.4 1.8.4zm-.46-6.22c-.786 0-1.426.253-1.92.76-.493.507-.753 1.207-.78 2.1l5.24-1.02a2.345 2.345 0 00-.9-1.34c-.453-.333-1-.5-1.64-.5zM121.92 71.48a3.34 3.34 0 01-1.14.52c-.44.107-.9.16-1.38.16-1.293 0-2.287-.327-2.98-.98-.693-.653-1.04-1.613-1.04-2.88v-9.44h3.12v2.62h2.66v2.4h-2.66v4.38c0 .453.113.807.34 1.06.227.24.553.36.98.36.48 0 .907-.133 1.28-.4l.82 2.2zm6.55.68c-1.133 0-2.153-.233-3.06-.7a5.37 5.37 0 01-2.1-1.98c-.507-.84-.76-1.793-.76-2.86s.253-2.02.76-2.86a5.23 5.23 0 012.1-1.96c.907-.48 1.927-.72 3.06-.72s2.147.24 3.04.72a5.23 5.23 0 012.1 1.96c.507.84.76 1.793.76 2.86s-.253 2.02-.76 2.86a5.37 5.37 0 01-2.1 1.98c-.893.467-1.907.7-3.04.7zm0-2.56c.8 0 1.453-.267 1.96-.8.52-.547.78-1.273.78-2.18 0-.907-.26-1.627-.78-2.16-.507-.547-1.16-.82-1.96-.82s-1.46.273-1.98.82c-.52.533-.78 1.253-.78 2.16 0 .907.26 1.633.78 2.18.52.533 1.18.8 1.98.8zm12.606-1.82l-1.5 1.48V72h-3.12V57.16h3.12v8.4l4.56-4.32h3.72l-4.48 4.56 4.88 6.2h-3.78l-3.4-4.22zm13.534 1.88c.56 0 1.053-.08 1.48-.24.44-.173.847-.44 1.22-.8l1.66 1.8c-1.013 1.16-2.493 1.74-4.44 1.74-1.213 0-2.287-.233-3.22-.7-.933-.48-1.653-1.14-2.16-1.98-.507-.84-.76-1.793-.76-2.86 0-1.053.247-2 .74-2.84a5.251 5.251 0 012.06-1.98c.88-.48 1.867-.72 2.96-.72 1.027 0 1.96.22 2.8.66a4.846 4.846 0 012 1.88c.507.813.76 1.78.76 2.9l-7.96 1.54c.227.533.58.933 1.06 1.2.493.267 1.093.4 1.8.4zm-.46-6.22c-.787 0-1.427.253-1.92.76-.493.507-.753 1.207-.78 2.1l5.24-1.02a2.354 2.354 0 00-.9-1.34c-.453-.333-1-.5-1.64-.5zm14.197-2.36c1.334 0 2.407.4 3.22 1.2.827.8 1.24 1.987 1.24 3.56V72h-3.12v-5.68c0-.853-.186-1.487-.56-1.9-.373-.427-.913-.64-1.62-.64-.786 0-1.413.247-1.88.74-.466.48-.7 1.2-.7 2.16V72h-3.12V61.24h2.98v1.26a4.05 4.05 0 011.54-1.04 5.245 5.245 0 012.02-.38z" fill="#fff"/><defs><filter id="filter0_d_4703_2" x="0" y="0" width="133.982" height="133" filterUnits="userSpaceOnUse" color-interpolation-filters="sRGB"><feFlood flood-opacity="0" result="BackgroundImageFix"/><feColorMatrix in="SourceAlpha" values="0 0 0 0 0 0 0 0 0 0 0 0 0 0 0 0 0 0 127 0" result="hardAlpha"/><feOffset dy="11"/><feGaussianBlur stdDeviation="22"/><feComposite in2="hardAlpha" operator="out"/><feColorMatrix values="0 0 0 0 0.637184 0 0 0 0 0.8625 0 0 0 0 0.539062 0 0 0 0.7 0"/><feBlend in2="BackgroundImageFix" result="effect1_dropShadow_4703_2"/><feBlend in="SourceGraphic" in2="effect1_dropShadow_4703_2" result="shape"/></filter></defs></svg>